<svg width="4161" height="1732" xmlns="http://www.w3.org/2000/svg" xmlns:xlink="http://www.w3.org/1999/xlink" xml:space="preserve" overflow="hidden"><defs><clipPath id="clip0"><path d="M1604.07 1539.99 1883 1666.18 1756.81 1945.12 1477.88 1818.93Z" fill-rule="nonzero" clip-rule="nonzero"/></clipPath><clipPath id="clip1"><path d="M1604.07 1539.99 1883 1666.18 1756.81 1945.12 1477.88 1818.93Z" fill-rule="evenodd" clip-rule="evenodd"/></clipPath><clipPath id="clip2"><path d="M1604.07 1539.99 1883 1666.18 1756.81 1945.12 1477.88 1818.93Z" fill-rule="evenodd" clip-rule="evenodd"/></clipPath></defs><g transform="translate(-119 -380)"><g><rect x="121" y="381" width="4158" height="631" fill="#CAEEFB" fill-opacity="1"/><path d="M0 0 1604.06 0.260203" stroke="#0B76A0" stroke-width="27.5" stroke-linecap="butt" stroke-linejoin="miter" stroke-miterlimit="8" stroke-opacity="1" fill="none" fill-rule="evenodd" transform="matrix(1 0 0 -1 1884 558.26)"/><rect x="121" y="1073" width="4158" height="452" fill="#CAEEFB" fill-opacity="1"/><rect x="121" y="1571" width="4158" height="523" fill="#D9F2D0" fill-opacity="1"/><rect x="1278" y="1129" width="2852" height="213" fill="#156082" fill-opacity="1"/><text fill="#FFFFFF" fill-opacity="1" font-family="07LogoTypeGothic7,07LogoTypeGothic7_MSFontService,sans-serif" font-style="normal" font-variant="normal" font-weight="400" font-stretch="normal" font-size="110" text-anchor="start" direction="ltr" writing-mode="lr-tb" unicode-bidi="normal" text-decoration="none" transform="matrix(1 0 0 1 2236.57 1279)">属性</text><text fill="#FFFFFF" fill-opacity="1" font-family="07LogoTypeGothic7,07LogoTypeGothic7_MSFontService,sans-serif" font-style="normal" font-variant="normal" font-weight="400" font-stretch="normal" font-size="110" text-anchor="start" direction="ltr" writing-mode="lr-tb" unicode-bidi="normal" text-decoration="none" transform="matrix(1 0 0 1 2511.57 1279)">/ </text><text fill="#FFFFFF" fill-opacity="1" font-family="07LogoTypeGothic7,07LogoTypeGothic7_MSFontService,sans-serif" font-style="normal" font-variant="normal" font-weight="400" font-stretch="normal" font-size="110" text-anchor="start" direction="ltr" writing-mode="lr-tb" unicode-bidi="normal" text-decoration="none" transform="matrix(1 0 0 1 2621.57 1279)">状況</text><text fill="#FFFFFF" fill-opacity="1" font-family="07LogoTypeGothic7,07LogoTypeGothic7_MSFontService,sans-serif" font-style="normal" font-variant="normal" font-weight="400" font-stretch="normal" font-size="110" text-anchor="start" direction="ltr" writing-mode="lr-tb" unicode-bidi="normal" text-decoration="none" transform="matrix(1 0 0 1 2896.57 1279)">/ </text><text fill="#FFFFFF" fill-opacity="1" font-family="07LogoTypeGothic7,07LogoTypeGothic7_MSFontService,sans-serif" font-style="normal" font-variant="normal" font-weight="400" font-stretch="normal" font-size="110" text-anchor="start" direction="ltr" writing-mode="lr-tb" unicode-bidi="normal" text-decoration="none" transform="matrix(1 0 0 1 3006.57 1279)">記憶</text><text fill="#FFFFFF" fill-opacity="1" font-family="07LogoTypeGothic7,07LogoTypeGothic7_MSFontService,sans-serif" font-style="normal" font-variant="normal" font-weight="400" font-stretch="normal" font-size="110" text-anchor="start" direction="ltr" writing-mode="lr-tb" unicode-bidi="normal" text-decoration="none" transform="matrix(1 0 0 1 3281.57 1279)">/ …</text><g><g><g><path d="M165.229 64.375C163.512 64.375 162.01 64.5896 160.294 65.0187 160.723 63.5166 160.937 61.8 160.937 60.0833 160.937 48.2812 151.281 38.625 139.479 38.625 134.544 38.625 129.823 40.3416 126.175 43.1312 124.458 33.2604 115.66 25.75 105.146 25.75 95.275 25.75 86.9062 32.6166 84.3312 41.8437 80.4687 36.05 74.0312 32.1875 66.5208 32.1875 54.7187 32.1875 45.0625 41.8437 45.0625 53.6458 45.0625 55.3625 45.2771 56.8646 45.7062 58.5812 43.9896 58.1521 42.4875 57.9375 40.7708 57.9375 28.9687 57.9375 19.3125 67.5937 19.3125 79.3958 19.3125 91.1979 28.9687 100.854 40.7708 100.854 40.7708 100.854 40.7708 100.854 40.9854 100.854 42.0583 111.798 51.2854 120.167 62.2291 120.167 67.1646 120.167 71.6708 118.45 75.3187 115.66 75.3187 116.304 75.1041 117.162 75.1041 118.021 75.1041 129.823 84.7604 139.479 96.5625 139.479 107.721 139.479 116.948 130.896 118.021 119.952 121.883 125.317 128.106 128.75 135.187 128.75 146.99 128.75 156.646 119.094 156.646 107.292 156.646 106.648 156.646 106.004 156.646 105.36 159.221 106.433 162.225 107.292 165.229 107.292 177.031 107.292 186.687 97.6354 186.687 85.8333 186.687 74.0312 177.031 64.375 165.229 64.375Z" fill="#FFFFFF" fill-rule="nonzero" fill-opacity="1" transform="matrix(1 0 0 1.01942 1935 1126)"/><path d="M75.1041 148.062C75.1041 155.173 69.3398 160.937 62.2291 160.937 55.1185 160.937 49.3541 155.173 49.3541 148.062 49.3541 140.952 55.1185 135.187 62.2291 135.187 69.3398 135.187 75.1041 140.952 75.1041 148.062Z" fill="#FFFFFF" fill-rule="nonzero" fill-opacity="1" transform="matrix(1 0 0 1.01942 1935 1126)"/><path d="M46.1354 170.594C46.1354 175.927 41.8121 180.25 36.4791 180.25 31.1462 180.25 26.8229 175.927 26.8229 170.594 26.8229 165.261 31.1462 160.937 36.4791 160.937 41.8121 160.937 46.1354 165.261 46.1354 170.594Z" fill="#FFFFFF" fill-rule="nonzero" fill-opacity="1" transform="matrix(1 0 0 1.01942 1935 1126)"/></g></g></g><text fill="#215F9A" fill-opacity="1" font-family="07LogoTypeGothic7,07LogoTypeGothic7_MSFontService,sans-serif" font-style="normal" font-variant="normal" font-weight="700" font-stretch="normal" font-size="128" text-anchor="start" direction="ltr" writing-mode="lr-tb" unicode-bidi="normal" text-decoration="none" transform="matrix(1 0 0 1 400.017 663)">狙いたい</text><text fill="#215F9A" fill-opacity="1" font-family="07LogoTypeGothic7,07LogoTypeGothic7_MSFontService,sans-serif" font-style="normal" font-variant="normal" font-weight="700" font-stretch="normal" font-size="128" text-anchor="start" direction="ltr" writing-mode="lr-tb" unicode-bidi="normal" text-decoration="none" transform="matrix(1 0 0 1 204.079 817)">デザインの効果</text><text fill="#215F9A" fill-opacity="1" font-family="07LogoTypeGothic7,07LogoTypeGothic7_MSFontService,sans-serif" font-style="normal" font-variant="normal" font-weight="700" font-stretch="normal" font-size="128" text-anchor="start" direction="ltr" writing-mode="lr-tb" unicode-bidi="normal" text-decoration="none" transform="matrix(1 0 0 1 274.924 1337)">ユーザの文脈</text><text fill="#215F9A" fill-opacity="1" font-family="07LogoTypeGothic7,07LogoTypeGothic7_MSFontService,sans-serif" font-style="normal" font-variant="normal" font-weight="700" font-stretch="normal" font-size="92" text-anchor="start" direction="ltr" writing-mode="lr-tb" unicode-bidi="normal" text-decoration="none" transform="matrix(1 0 0 1 1741.87 848)">↑</text><text fill="#215F9A" fill-opacity="1" font-family="07LogoTypeGothic7,07LogoTypeGothic7_MSFontService,sans-serif" font-style="normal" font-variant="normal" font-weight="700" font-stretch="normal" font-size="92" text-anchor="start" direction="ltr" writing-mode="lr-tb" unicode-bidi="normal" text-decoration="underline" transform="matrix(1 0 0 1 1881.09 848)">どこに</text><text fill="#215F9A" fill-opacity="1" font-family="07LogoTypeGothic7,07LogoTypeGothic7_MSFontService,sans-serif" font-style="normal" font-variant="normal" font-weight="700" font-stretch="normal" font-size="92" text-anchor="start" direction="ltr" writing-mode="lr-tb" unicode-bidi="normal" text-decoration="underline" transform="matrix(1 0 0 1 2207.08 848)">どのような影響を</text><text fill="#215F9A" fill-opacity="1" font-family="07LogoTypeGothic7,07LogoTypeGothic7_MSFontService,sans-serif" font-style="normal" font-variant="normal" font-weight="700" font-stretch="normal" font-size="92" text-anchor="start" direction="ltr" writing-mode="lr-tb" unicode-bidi="normal" text-decoration="none" transform="matrix(1 0 0 1 2999.99 848)">与えるか？</text><text fill="#215F9A" fill-opacity="1" font-family="07LogoTypeGothic7,07LogoTypeGothic7_MSFontService,sans-serif" font-style="normal" font-variant="normal" font-weight="700" font-stretch="normal" font-size="92" text-anchor="start" direction="ltr" writing-mode="lr-tb" unicode-bidi="normal" text-decoration="none" transform="matrix(1 0 0 1 3512.75 848)">↑</text><text fill="#4E95D9" fill-opacity="1" font-family="07LogoTypeGothic7,07LogoTypeGothic7_MSFontService,sans-serif" font-style="normal" font-variant="normal" font-weight="700" font-stretch="normal" font-size="83" text-anchor="start" direction="ltr" writing-mode="lr-tb" unicode-bidi="normal" text-decoration="none" transform="matrix(1 0 0 1 1494.94 949)">情動と動機づけが狙いの場合は、何が要因となったかまで記述</text><text fill="#215F9A" fill-opacity="1" font-family="07LogoTypeGothic7,07LogoTypeGothic7_MSFontService,sans-serif" font-style="normal" font-variant="normal" font-weight="700" font-stretch="normal" font-size="92" text-anchor="start" direction="ltr" writing-mode="lr-tb" unicode-bidi="normal" text-decoration="underline" transform="matrix(1 0 0 1 1645.78 1466)">どういった状況のもと</text><text fill="#215F9A" fill-opacity="1" font-family="07LogoTypeGothic7,07LogoTypeGothic7_MSFontService,sans-serif" font-style="normal" font-variant="normal" font-weight="700" font-stretch="normal" font-size="92" text-anchor="start" direction="ltr" writing-mode="lr-tb" unicode-bidi="normal" text-decoration="none" transform="matrix(1 0 0 1 2625.46 1466)">そのデザインに触れるか？</text><text fill="#196B24" fill-opacity="1" font-family="07LogoTypeGothic7,07LogoTypeGothic7_MSFontService,sans-serif" font-style="normal" font-variant="normal" font-weight="700" font-stretch="normal" font-size="128" text-anchor="start" direction="ltr" writing-mode="lr-tb" unicode-bidi="normal" text-decoration="none" transform="matrix(1 0 0 1 340.237 1883)">アプローチ</text><text fill="#196B24" fill-opacity="1" font-family="07LogoTypeGothic7,07LogoTypeGothic7_MSFontService,sans-serif" font-style="normal" font-variant="normal" font-weight="700" font-stretch="normal" font-size="92" text-anchor="start" direction="ltr" writing-mode="lr-tb" unicode-bidi="normal" text-decoration="none" transform="matrix(1 0 0 1 1586.34 2034)">コンテンツに</text><text fill="#196B24" fill-opacity="1" font-family="07LogoTypeGothic7,07LogoTypeGothic7_MSFontService,sans-serif" font-style="normal" font-variant="normal" font-weight="700" font-stretch="normal" font-size="92" text-anchor="start" direction="ltr" writing-mode="lr-tb" unicode-bidi="normal" text-decoration="underline" transform="matrix(1 0 0 1 2192.49 2034)">どういう工夫を</text><text fill="#196B24" fill-opacity="1" font-family="07LogoTypeGothic7,07LogoTypeGothic7_MSFontService,sans-serif" font-style="normal" font-variant="normal" font-weight="700" font-stretch="normal" font-size="92" text-anchor="start" direction="ltr" writing-mode="lr-tb" unicode-bidi="normal" text-decoration="none" transform="matrix(1 0 0 1 2892.02 2034)">施す必要があるか？</text><g clip-path="url(#clip0)"><g clip-path="url(#clip1)"><g clip-path="url(#clip2)"><path d="M1713.35 1726.53 1719.13 1720.33 1716.07 1712.23 1707.63 1711.38C1706.22 1709.45 1704.56 1707.7 1702.71 1706.18L1702.37 1697.8 1694.58 1694.28 1688.02 1699.57C1685.64 1699.19 1683.23 1699.09 1680.83 1699.29L1674.63 1693.51 1666.52 1696.57 1665.54 1704.94C1663.56 1706.33 1661.79 1707.97 1660.24 1709.83L1651.84 1710.15 1648.37 1717.82 1653.66 1724.38C1653.27 1726.75 1653.18 1729.16 1653.4 1731.55L1647.61 1737.75 1650.9 1745.96 1659.35 1746.77C1660.76 1748.71 1662.42 1750.47 1664.27 1752L1664.61 1760.38 1672.39 1763.91 1678.89 1758.76C1681.22 1759.13 1683.58 1759.23 1685.93 1759.04L1692.1 1764.84 1700.21 1761.76 1701.04 1753.35C1703.02 1751.93 1704.83 1750.29 1706.43 1748.47L1714.81 1748.13 1718.37 1740.26 1713.08 1733.7C1713.48 1731.33 1713.57 1728.92 1713.35 1726.53ZM1678.18 1740.83C1671.76 1737.93 1668.91 1730.37 1671.81 1723.95 1674.72 1717.53 1682.27 1714.68 1688.69 1717.59 1695.03 1720.57 1697.85 1728.04 1695.06 1734.47 1692.15 1740.89 1684.59 1743.73 1678.18 1740.83Z" fill="#4EA72E" fill-rule="nonzero" fill-opacity="1"/><path d="M1667.66 1830.54 1617.65 1807.92C1612.9 1806.1 1607.57 1808.48 1605.75 1813.23 1604.08 1817.59 1605.93 1822.51 1610.07 1824.69L1660.07 1847.31C1664.83 1849.13 1670.16 1846.75 1671.98 1842 1673.65 1837.64 1671.79 1832.72 1667.66 1830.54Z" fill="#4EA72E" fill-rule="nonzero" fill-opacity="1"/><path d="M1622.24 1864.39C1631.74 1868.67 1642.92 1864.94 1647.96 1855.83L1611.67 1839.41C1608.16 1849.22 1612.76 1860.08 1622.24 1864.39Z" fill="#4EA72E" fill-rule="nonzero" fill-opacity="1"/><path d="M1755.08 1763.96 1756.21 1761.47C1773.41 1721.47 1755.58 1675.06 1716.02 1656.87 1676.25 1639.17 1629.61 1656.42 1610.93 1695.74L1609.8 1698.24C1606.17 1706.96 1604.04 1716.23 1603.48 1725.66 1602.99 1734.57 1604.1 1743.5 1606.75 1752.02 1610.13 1762.27 1611.02 1779.65 1611.26 1787.32 1611.34 1789.64 1612.74 1791.71 1614.86 1792.66L1680.82 1822.5C1682.93 1823.47 1685.41 1823.15 1687.21 1821.68 1693.13 1816.8 1706.75 1806.02 1716.69 1801.76 1724.84 1798.13 1732.28 1793.06 1738.65 1786.81 1745.37 1780.17 1750.92 1772.45 1755.08 1763.96ZM1738.46 1756.13C1735.23 1762.72 1730.94 1768.72 1725.76 1773.91 1721.01 1778.54 1715.47 1782.29 1709.41 1784.99 1699.48 1789.75 1690.15 1795.66 1681.6 1802.58L1629.3 1778.92C1628.92 1767.93 1627.26 1757.01 1624.34 1746.4 1622.36 1740.07 1621.53 1733.43 1621.87 1726.8 1622.29 1719.47 1623.92 1712.26 1626.69 1705.46L1627.64 1703.37C1641.96 1673.1 1677.83 1659.8 1708.43 1673.42 1738.86 1687.41 1752.55 1723.13 1739.27 1753.87Z" fill="#4EA72E" fill-rule="nonzero" fill-opacity="1"/><path d="M1721.81 1645.76C1725.02 1647.22 1728.8 1645.79 1730.25 1642.58L1739.46 1622.24C1740.91 1619.03 1739.48 1615.26 1736.27 1613.8 1733.06 1612.35 1729.29 1613.78 1727.83 1616.99L1718.63 1637.32C1717.18 1640.53 1718.6 1644.31 1721.81 1645.76Z" fill="#4EA72E" fill-rule="nonzero" fill-opacity="1"/><path d="M1641.31 1640.11C1642.56 1643.39 1646.22 1645.05 1649.5 1643.82 1652.78 1642.57 1654.44 1638.91 1653.21 1635.63L1645.36 1614.68C1643.95 1611.45 1640.19 1609.97 1636.96 1611.38 1633.96 1612.7 1632.44 1616.07 1633.45 1619.19Z" fill="#4EA72E" fill-rule="nonzero" fill-opacity="1"/><path d="M1773.92 1703.5C1775.47 1704.2 1777.24 1704.26 1778.83 1703.65L1799.75 1695.62C1802.8 1693.86 1803.85 1689.96 1802.09 1686.91 1800.7 1684.5 1797.91 1683.27 1795.2 1683.86L1774.1 1691.82C1770.82 1693.07 1769.16 1696.73 1770.39 1700.01 1771.05 1701.61 1772.32 1702.86 1773.92 1703.5Z" fill="#4EA72E" fill-rule="nonzero" fill-opacity="1"/><path d="M1596.73 1681.93 1576.39 1672.73C1573.18 1671.28 1569.41 1672.71 1567.95 1675.92 1566.5 1679.12 1567.93 1682.9 1571.14 1684.36L1591.48 1693.56C1594.68 1695.01 1598.46 1693.58 1599.92 1690.37 1601.37 1687.17 1599.94 1683.39 1596.73 1681.93Z" fill="#4EA72E" fill-rule="nonzero" fill-opacity="1"/><path d="M1589.59 1754.45 1568.63 1762.47C1565.25 1763.45 1563.3 1766.99 1564.29 1770.37 1565.27 1773.76 1568.81 1775.7 1572.2 1774.72 1572.51 1774.62 1572.82 1774.51 1573.12 1774.37L1594.07 1766.35C1597.26 1764.85 1598.64 1761.06 1597.15 1757.87 1595.81 1755.02 1592.6 1753.57 1589.59 1754.45Z" fill="#4EA72E" fill-rule="nonzero" fill-opacity="1"/><path d="M1728.1 1815.78C1727.03 1812.43 1723.44 1810.58 1720.08 1811.65 1716.73 1812.72 1714.88 1816.31 1715.95 1819.67 1716.01 1819.87 1716.09 1820.06 1716.17 1820.25L1724.13 1841.35C1725.06 1844.75 1728.58 1846.74 1731.97 1845.8 1735.37 1844.86 1737.36 1841.35 1736.42 1837.96 1736.29 1837.5 1736.12 1837.05 1735.89 1836.63Z" fill="#4EA72E" fill-rule="nonzero" fill-opacity="1"/><path d="M1796.58 1772.1 1776.24 1762.9C1773.04 1761.45 1769.26 1762.87 1767.8 1766.08 1766.35 1769.29 1767.78 1773.07 1770.99 1774.52L1791.33 1783.72C1794.54 1785.18 1798.31 1783.75 1799.77 1780.54 1801.22 1777.33 1799.79 1773.55 1796.58 1772.1Z" fill="#4EA72E" fill-rule="nonzero" fill-opacity="1"/></g></g></g><g><g><g><path d="M214.002 5.79167 214.002 5.79167C216.029 13.3208 221.531 19.6917 228.771 23.1667 221.531 26.6417 216.319 33.0125 214.002 40.5417 211.975 33.0125 206.473 26.6417 199.233 23.1667 206.473 19.6917 211.975 13.3208 214.002 5.79167Z" fill="#275317" fill-rule="nonzero" fill-opacity="1" transform="matrix(1.0036 0 0 1 3207 1592)"/><path d="M28.6688 69.5 28.6688 69.5C30.6958 77.0292 36.1979 83.4 43.4375 86.875 36.1979 90.35 30.9854 96.7209 28.6688 104.25 26.6417 96.7209 21.1396 90.35 13.9 86.875 21.1396 83.4 26.6417 77.0292 28.6688 69.5Z" fill="#275317" fill-rule="nonzero" fill-opacity="1" transform="matrix(1.0036 0 0 1 3207 1592)"/><path d="M57.3375 11.5833 57.3375 11.5833C59.075 17.9542 63.7084 23.1667 69.5 26.0625 63.4188 28.9583 59.075 34.1708 57.3375 40.5417 55.6 34.1708 50.9667 28.9583 45.175 26.0625 50.9667 23.1667 55.6 17.9542 57.3375 11.5833Z" fill="#275317" fill-rule="nonzero" fill-opacity="1" transform="matrix(1.0036 0 0 1 3207 1592)"/><path d="M248.463 57.9167 248.463 57.9167C250.2 64.2875 254.833 69.5 260.625 72.3959 254.544 75.2917 250.2 80.5042 248.463 86.875 246.725 80.5042 242.092 75.2917 236.3 72.3959 242.092 69.5 246.725 64.2875 248.463 57.9167Z" fill="#275317" fill-rule="nonzero" fill-opacity="1" transform="matrix(1.0036 0 0 1 3207 1592)"/><path d="M139 114.385C136.683 114.385 134.656 112.358 134.656 110.042L134.656 81.0834C134.656 78.7667 136.683 76.7396 139 76.7396 141.317 76.7396 143.344 78.7667 143.344 81.0834L143.344 110.042C143.344 112.358 141.317 114.385 139 114.385Z" fill="#275317" fill-rule="nonzero" fill-opacity="1" transform="matrix(1.0036 0 0 1 3207 1592)"/><path d="M139 68.0521C136.683 68.0521 134.656 66.025 134.656 63.7084L134.656 40.5417C134.656 38.225 136.683 36.1979 139 36.1979 141.317 36.1979 143.344 38.225 143.344 40.5417L143.344 63.7084C143.344 66.025 141.317 68.0521 139 68.0521Z" fill="#275317" fill-rule="nonzero" fill-opacity="1" transform="matrix(1.0036 0 0 1 3207 1592)"/><path d="M139 27.5104C136.683 27.5104 134.656 25.4833 134.656 23.1667L134.656 11.5833C134.656 9.26667 136.683 7.23959 139 7.23959 141.317 7.23959 143.344 9.26667 143.344 11.5833L143.344 23.1667C143.344 25.4833 141.317 27.5104 139 27.5104Z" fill="#275317" fill-rule="nonzero" fill-opacity="1" transform="matrix(1.0036 0 0 1 3207 1592)"/><path d="M170.854 94.1146C170.565 94.1146 170.275 94.1146 169.985 94.1146 167.669 93.5355 166.221 91.2188 166.8 88.9021L171.723 66.3146C172.302 63.9979 174.619 62.55 176.935 63.1292 179.252 63.7084 180.7 66.025 180.121 68.3417L175.198 90.9292C174.619 92.6667 172.881 94.1146 170.854 94.1146Z" fill="#275317" fill-rule="nonzero" fill-opacity="1" transform="matrix(1.0036 0 0 1 3207 1592)"/><path d="M179.542 54.4417C179.252 54.4417 178.963 54.4417 178.673 54.4417 176.356 53.8625 174.908 51.5459 175.488 49.2292L175.488 49.2292 179.252 32.1438C179.831 29.8271 181.858 28.3792 184.465 28.6688 186.781 29.2479 188.229 31.275 187.94 33.8813 187.94 33.8813 187.94 33.8813 187.94 34.1708L184.175 51.2563C183.306 52.9938 181.569 54.4417 179.542 54.4417Z" fill="#275317" fill-rule="nonzero" fill-opacity="1" transform="matrix(1.0036 0 0 1 3207 1592)"/><path d="M199.813 88.323C197.496 88.323 195.469 86.2959 195.469 83.9792 195.469 83.1105 195.758 82.2417 196.338 81.3729L216.029 52.7042C217.477 50.6771 220.083 50.3875 222.11 51.8354 223.848 53.2834 224.427 55.6 223.269 57.6271L203.577 86.2959C202.708 87.7438 201.26 88.323 199.813 88.323Z" fill="#275317" fill-rule="nonzero" fill-opacity="1" transform="matrix(1.0036 0 0 1 3207 1592)"/><path d="M107.146 94.1146C105.119 94.1146 103.381 92.6667 102.802 90.6396L96.7209 62.2604C96.1417 59.9438 97.8792 57.6271 100.196 57.0479 102.513 56.4688 104.829 57.9167 105.119 60.2334L111.2 88.6125C111.779 90.9292 110.331 93.2459 108.015 93.825 107.725 94.1146 107.435 94.1146 107.146 94.1146Z" fill="#275317" fill-rule="nonzero" fill-opacity="1" transform="matrix(1.0036 0 0 1 3207 1592)"/><path d="M97.3 48.9396C95.273 48.9396 93.5355 47.4917 92.9563 45.4646L90.6396 34.1708C90.0605 31.8542 91.5084 29.5375 93.825 28.9583 96.1417 28.3792 98.4584 29.8271 99.0375 32.1438 99.0375 32.1438 99.0375 32.1438 99.0375 32.4333L101.354 43.7271C101.933 46.0438 100.485 48.3604 98.1688 48.9396 97.8792 48.9396 97.5896 48.9396 97.3 48.9396Z" fill="#275317" fill-rule="nonzero" fill-opacity="1" transform="matrix(1.0036 0 0 1 3207 1592)"/><path d="M78.1875 88.323C76.7396 88.323 75.2917 87.7438 74.7125 86.5854L55.0209 57.9167C53.8625 55.8896 54.4417 53.2834 56.4688 51.8354 58.4959 50.6771 60.8125 50.9667 62.2604 52.9938L81.9521 81.6625C83.4 83.6896 82.8209 86.2959 80.7938 87.7438 79.925 88.0334 79.0563 88.323 78.1875 88.323Z" fill="#275317" fill-rule="nonzero" fill-opacity="1" transform="matrix(1.0036 0 0 1 3207 1592)"/><path d="M265.838 237.169 257.15 143.344C256.861 140.448 254.254 138.131 251.358 138.131 250.2 138.131 248.463 138.131 247.015 138.131L245.567 121.335 240.354 121.046C236.011 120.756 231.667 121.046 227.613 121.335L226.165 105.698 221.821 104.829C191.415 101.065 161.008 111.2 139 132.629 116.992 111.2 86.5854 101.065 56.1792 104.829L51.8354 105.698 50.3875 121.335C46.0438 121.046 41.9896 120.756 37.6458 121.046L32.7229 121.335 31.275 138.131C29.5375 138.131 28.0896 138.131 26.9313 138.131 24.0354 138.131 21.4292 140.448 21.1396 143.344L12.4521 237.169C11.8729 240.354 14.1896 243.25 17.375 243.54 17.6646 243.54 17.9542 243.54 18.2438 243.54 35.9083 242.961 85.4271 244.119 125.679 270.471 127.706 271.629 129.733 272.498 132.05 272.498L146.529 272.498C148.846 272.498 150.873 271.919 152.61 270.761 194.89 244.408 242.961 243.25 260.046 243.829 263.231 243.829 265.838 241.513 266.127 238.327 265.838 237.458 265.838 237.458 265.838 237.169ZM144.792 143.054C163.325 123.942 189.098 114.096 215.45 115.544L223.269 205.315C209.658 207.921 174.329 216.608 144.792 242.092L144.792 143.054ZM62.55 115.833C88.9021 114.385 114.675 124.231 133.208 143.344L133.208 242.381C103.671 216.898 68.3417 208.21 54.7313 205.604L62.55 115.833ZM34.75 222.979 43.4375 132.34C45.175 132.34 47.2021 132.629 49.5188 132.629L42.2792 215.45 47.7813 216.029C48.3604 216.029 97.3 222.4 131.471 256.281 93.5355 227.323 51.2563 223.558 34.75 222.979ZM146.529 256.861C181.279 222.69 229.929 216.029 230.219 216.029L235.721 215.45 228.481 132.629C230.798 132.34 232.825 132.34 234.563 132.34L243.25 222.979C226.744 223.558 184.465 227.613 146.529 256.861Z" fill="#275317" fill-rule="nonzero" fill-opacity="1" transform="matrix(1.0036 0 0 1 3207 1592)"/></g></g></g><g><g><g><path d="M3727.16 1770.59C3722.22 1770.59 3718.44 1766.82 3718.44 1761.88 3718.44 1756.93 3722.22 1753.16 3727.16 1753.16 3732.1 1753.16 3735.87 1756.93 3735.87 1761.88 3735.87 1766.82 3732.1 1770.59 3727.16 1770.59ZM3709.72 1788.03C3704.78 1788.03 3701 1784.25 3701 1779.31 3701 1774.37 3704.78 1770.59 3709.72 1770.59 3714.66 1770.59 3718.44 1774.37 3718.44 1779.31 3718.44 1784.25 3714.66 1788.03 3709.72 1788.03ZM3692.28 1770.59C3687.34 1770.59 3683.56 1766.82 3683.56 1761.88 3683.56 1756.93 3687.34 1753.16 3692.28 1753.16 3697.22 1753.16 3701 1756.93 3701 1761.88 3701 1766.82 3697.22 1770.59 3692.28 1770.59ZM3709.72 1735.72C3714.66 1735.72 3718.44 1739.5 3718.44 1744.44 3718.44 1749.38 3714.66 1753.16 3709.72 1753.16 3704.78 1753.16 3701 1749.38 3701 1744.44 3701 1739.5 3704.78 1735.72 3709.72 1735.72ZM3616.72 1767.69 3605.09 1767.69 3605.09 1779.31C3605.09 1782.51 3602.48 1785.12 3599.28 1785.12 3596.08 1785.12 3593.47 1782.51 3593.47 1779.31L3593.47 1767.69 3581.84 1767.69C3578.65 1767.69 3576.03 1765.07 3576.03 1761.88 3576.03 1758.68 3578.65 1756.06 3581.84 1756.06L3593.47 1756.06 3593.47 1744.44C3593.47 1741.24 3596.08 1738.62 3599.28 1738.62 3602.48 1738.62 3605.09 1741.24 3605.09 1744.44L3605.09 1756.06 3616.72 1756.06C3619.92 1756.06 3622.53 1758.68 3622.53 1761.88 3622.53 1765.07 3619.92 1767.69 3616.72 1767.69ZM3721.34 1692.12C3687.05 1692.12 3704.49 1709.56 3654.5 1709.56 3604.51 1709.56 3621.95 1692.12 3587.66 1692.12 3551.04 1692.12 3504.54 1854.88 3552.78 1854.88 3597.25 1854.88 3580.39 1814.19 3654.5 1814.19 3728.61 1814.19 3711.75 1854.88 3756.22 1854.88 3804.46 1854.88 3757.96 1692.12 3721.34 1692.12Z" fill="#275317" fill-rule="nonzero" fill-opacity="1"/></g></g></g><g><g><g><path d="M3165.75 1823.62 3165.75 1684.12 2936.16 1684.12 2936.16 1846.88 3165.75 1846.88ZM3159.94 1841.06 3145.41 1841.06 3145.41 1823.62 3159.94 1823.62ZM3093.17 1713.19C3093.14 1713.22 3093.12 1713.25 3093.09 1713.28 3093.07 1713.25 3093.04 1713.22 3093.02 1713.19ZM3125.06 1707.37 3125.06 1689.94 3139.59 1689.94 3139.59 1707.37ZM3119.25 1707.37 3104.72 1707.37 3104.72 1689.94 3119.25 1689.94ZM3098.91 1707.37 3084.38 1707.37 3084.38 1689.94 3098.91 1689.94ZM3078.56 1707.37 3064.03 1707.37 3064.03 1689.94 3078.56 1689.94ZM3058.22 1707.37 3043.69 1707.37 3043.69 1689.94 3058.22 1689.94ZM3037.88 1707.37 3023.34 1707.37 3023.34 1689.94 3037.88 1689.94ZM3017.53 1707.37 3003 1707.37 3003 1689.94 3017.53 1689.94ZM2997.19 1707.37 2982.66 1707.37 2982.66 1689.94 2997.19 1689.94ZM2976.84 1707.37 2962.31 1707.37 2962.31 1689.94 2976.84 1689.94ZM3008.89 1713.19C3008.86 1713.22 3008.84 1713.25 3008.81 1713.28 3008.79 1713.25 3008.76 1713.22 3008.74 1713.19ZM3020.44 1713.19 3081.47 1713.19C3086.28 1713.19 3090.19 1717.09 3090.19 1721.91L3090.19 1809.09C3090.19 1813.91 3086.28 1817.81 3081.47 1817.81L3020.44 1817.81C3015.62 1817.81 3011.72 1813.91 3011.72 1809.09L3011.72 1721.91C3011.72 1717.09 3015.62 1713.19 3020.44 1713.19ZM3093.02 1817.81C3093.04 1817.78 3093.07 1817.75 3093.09 1817.72 3093.12 1817.75 3093.14 1817.78 3093.17 1817.81ZM3008.89 1817.81 3008.74 1817.81C3008.76 1817.78 3008.79 1817.75 3008.81 1817.72 3008.84 1817.75 3008.86 1817.78 3008.89 1817.81ZM2976.84 1823.62 2976.84 1841.06 2962.31 1841.06 2962.31 1823.62ZM2982.66 1823.62 2997.19 1823.62 2997.19 1841.06 2982.66 1841.06ZM3003 1823.62 3017.53 1823.62 3017.53 1841.06 3003 1841.06ZM3023.34 1823.62 3037.88 1823.62 3037.88 1841.06 3023.34 1841.06ZM3043.69 1823.62 3058.22 1823.62 3058.22 1841.06 3043.69 1841.06ZM3064.03 1823.62 3078.56 1823.62 3078.56 1841.06 3064.03 1841.06ZM3084.38 1823.62 3098.91 1823.62 3098.91 1841.06 3084.38 1841.06ZM3104.72 1823.62 3119.25 1823.62 3119.25 1841.06 3104.72 1841.06ZM3125.06 1823.62 3139.59 1823.62 3139.59 1841.06 3125.06 1841.06ZM3159.94 1817.81 3104.72 1817.81C3099.9 1817.81 3096 1813.91 3096 1809.09L3096 1721.91C3096 1717.09 3099.9 1713.19 3104.72 1713.19L3159.94 1713.19ZM3159.94 1707.37 3145.41 1707.37 3145.41 1689.94 3159.94 1689.94ZM2941.97 1689.94 2956.5 1689.94 2956.5 1707.37 2941.97 1707.37ZM2941.97 1713.19 2997.19 1713.19C3002 1713.19 3005.91 1717.09 3005.91 1721.91L3005.91 1809.09C3005.91 1813.91 3002 1817.81 2997.19 1817.81L2941.97 1817.81ZM2941.97 1823.62 2956.5 1823.62 2956.5 1841.06 2941.97 1841.06Z" fill="#275317" fill-rule="nonzero" fill-opacity="1"/></g></g></g><path d="M1883.5 1747.19 2800.56 1747.19 2800.56 1767.81 1883.5 1767.81ZM2790.25 1726.56 2852.13 1757.5 2790.25 1788.44Z" fill="#4EA72E" fill-rule="nonzero" fill-opacity="1"/><g><g><g><path d="M229.788 144.538C213.513 144.538 200.725 131.363 200.725 115.475 200.725 99.5876 213.9 86.4126 229.788 86.4126 246.063 86.4126 258.85 99.5876 258.85 115.475 258.85 131.363 245.675 144.538 229.788 144.538ZM295.275 97.2626C293.725 91.8376 291.788 86.8001 289.075 82.1501L295.275 63.9375 281.325 49.9875 263.113 56.1875C258.463 53.475 253.425 51.5375 248 49.9875L239.475 32.9375 220.1 32.9375 211.575 49.9875C206.15 51.5375 201.113 53.475 196.463 56.1875L178.25 49.9875 164.3 63.9375 170.5 82.1501C167.788 86.8001 165.85 91.8376 164.3 97.2626L147.25 105.788 147.25 125.163 164.3 133.688C165.85 139.113 167.788 144.15 170.5 148.8L164.3 167.013 177.863 180.575 196.075 174.375C200.725 177.088 205.763 179.025 211.188 180.575L219.713 197.625 239.088 197.625 247.613 180.575C253.038 179.025 258.075 177.088 262.725 174.375L280.938 180.575 294.888 167.013 288.688 148.8C291.4 144.15 293.725 138.725 295.275 133.688L312.325 125.163 312.325 105.788 295.275 97.2626Z" fill="#275317" fill-rule="nonzero" fill-opacity="1" transform="matrix(1 0 0 1.00269 2140 1569)"/><path d="M142.213 285.588C125.938 285.588 113.15 272.413 113.15 256.525 113.15 240.25 126.325 227.463 142.213 227.463 158.488 227.463 171.275 240.638 171.275 256.525 171.275 272.413 158.488 285.588 142.213 285.588L142.213 285.588ZM201.5 223.2 207.7 204.988 193.75 191.038 175.538 197.238C170.888 194.525 165.463 192.588 160.425 191.038L151.9 173.988 132.525 173.988 124 191.038C118.575 192.588 113.538 194.525 108.888 197.238L90.6751 191.038 77.1126 204.6 82.9251 222.813C80.2126 227.463 78.2751 232.888 76.7251 237.925L59.675 246.45 59.675 265.825 76.7251 274.35C78.2751 279.775 80.2126 284.813 82.9251 289.463L77.1126 307.675 90.6751 321.238 108.888 315.425C113.538 318.138 118.575 320.075 124 321.625L132.525 338.675 151.9 338.675 160.425 321.625C165.85 320.075 170.888 318.138 175.538 315.425L193.75 321.625 207.313 307.675 201.5 289.85C204.213 285.2 206.15 280.163 207.7 274.738L224.75 266.213 224.75 246.838 207.7 238.313C206.15 232.888 204.213 227.85 201.5 223.2Z" fill="#275317" fill-rule="nonzero" fill-opacity="1" transform="matrix(1 0 0 1.00269 2140 1569)"/></g></g></g><path d="M1194 471.501C1194 446.924 1213.92 427 1238.5 427L1840.5 427C1865.08 427 1885 446.924 1885 471.501L1885 649.499C1885 674.076 1865.08 694 1840.5 694L1238.5 694C1213.92 694 1194 674.076 1194 649.499Z" fill="#0F9ED5" fill-rule="evenodd" fill-opacity="1"/><text fill="#FFFFFF" fill-opacity="1" font-family="07LogoTypeGothic7,07LogoTypeGothic7_MSFontService,sans-serif" font-style="normal" font-variant="normal" font-weight="400" font-stretch="normal" font-size="83" text-anchor="start" direction="ltr" writing-mode="lr-tb" unicode-bidi="normal" text-decoration="none" transform="matrix(1 0 0 1 1539.61 544)">知覚</text><g><g><g><path d="M98.8623 209.178 208.729 182.66 208.729 61.9852 128.766 23.9067 24.2708 46.7067 24.2708 169.015ZM127.002 39.1973 179.276 64.0895 136.958 73.5745 100.92 81.6518 52.3327 55.4879ZM38.8333 160.316 38.8333 64.7594 92.581 93.7023 92.581 189.259ZM194.166 171.194 107.143 192.2 107.143 95.1828 144.967 86.7026 194.166 75.6764Z" fill="#FFFFFF" fill-rule="nonzero" fill-opacity="1" transform="matrix(1 0 0 1 1251 444)"/><path d="M125.456 44.1389 130.31 44.1389 130.31 53.8472 125.456 53.8472Z" fill="#FFFFFF" fill-rule="nonzero" fill-opacity="1" transform="matrix(1 0 0 1 1251 444)"/><path d="M125.456 95.1076 130.31 95.1076 130.31 104.816 125.456 104.816Z" fill="#FFFFFF" fill-rule="nonzero" fill-opacity="1" transform="matrix(1 0 0 1 1251 444)"/><path d="M125.456 112.097 130.31 112.097 130.31 121.805 125.456 121.805Z" fill="#FFFFFF" fill-rule="nonzero" fill-opacity="1" transform="matrix(1 0 0 1 1251 444)"/><path d="M125.456 61.1284 130.31 61.1284 130.31 70.8368 125.456 70.8368Z" fill="#FFFFFF" fill-rule="nonzero" fill-opacity="1" transform="matrix(1 0 0 1 1251 444)"/><path d="M125.456 129.087 130.31 129.087 130.31 138.795 125.456 138.795Z" fill="#FFFFFF" fill-rule="nonzero" fill-opacity="1" transform="matrix(1 0 0 1 1251 444)"/><path d="M163.869 156.171 168.723 156.171 168.723 165.879 163.869 165.879Z" fill="#FFFFFF" fill-rule="nonzero" fill-opacity="1" transform="matrix(0.412215 -0.911087 0.911088 0.412214 1202.04 690.157)"/><path d="M114.422 143.098 124.131 143.098 124.131 147.952 114.422 147.952Z" fill="#FFFFFF" fill-rule="nonzero" fill-opacity="1" transform="matrix(0.977077 -0.212894 0.212894 0.977075 1222.75 472.729)"/><path d="M48.0271 157.585 57.7354 157.585 57.7354 162.44 48.0271 162.44Z" fill="#FFFFFF" fill-rule="nonzero" fill-opacity="1" transform="matrix(0.977077 -0.212894 0.212894 0.977075 1218.15 458.927)"/><path d="M148.389 149.168 153.243 149.168 153.243 158.874 148.389 158.874Z" fill="#FFFFFF" fill-rule="nonzero" fill-opacity="1" transform="matrix(0.412104 -0.911137 0.911138 0.412103 1199.33 671.964)"/><path d="M179.349 163.173 184.203 163.173 184.203 172.881 179.349 172.881Z" fill="#FFFFFF" fill-rule="nonzero" fill-opacity="1" transform="matrix(0.412215 -0.911087 0.911088 0.412214 1204.76 708.377)"/><path d="M132.912 142.166 137.766 142.166 137.766 151.875 132.912 151.875Z" fill="#FFFFFF" fill-rule="nonzero" fill-opacity="1" transform="matrix(0.412104 -0.911137 0.911138 0.412103 1196.61 653.744)"/><path d="M64.6259 153.964 74.3342 153.964 74.3342 158.818 64.6259 158.818Z" fill="#FFFFFF" fill-rule="nonzero" fill-opacity="1" transform="matrix(0.977077 -0.212894 0.212894 0.977075 1219.3 462.378)"/><path d="M81.2246 150.343 90.933 150.343 90.933 155.197 81.2246 155.197Z" fill="#FFFFFF" fill-rule="nonzero" fill-opacity="1" transform="matrix(0.977077 -0.212894 0.212894 0.977075 1220.45 465.829)"/></g></g></g><text fill="#FFFFFF" fill-opacity="1" font-family="07LogoTypeGothic7,07LogoTypeGothic7_MSFontService,sans-serif" font-style="normal" font-variant="normal" font-weight="700" font-stretch="normal" font-size="55" text-anchor="start" direction="ltr" writing-mode="lr-tb" unicode-bidi="normal" text-decoration="none" transform="matrix(1 0 0 1 1536.16 635)">何があるか</text><path d="M1961 468.334C1961 443.849 1980.85 424 2005.33 424L2615.67 424C2640.15 424 2660 443.849 2660 468.334L2660 645.666C2660 670.151 2640.15 690 2615.67 690L2005.33 690C1980.85 690 1961 670.151 1961 645.666Z" fill="#0F9ED5" fill-rule="evenodd" fill-opacity="1"/><text fill="#FFFFFF" fill-opacity="1" font-family="07LogoTypeGothic7,07LogoTypeGothic7_MSFontService,sans-serif" font-style="normal" font-variant="normal" font-weight="400" font-stretch="normal" font-size="83" text-anchor="start" direction="ltr" writing-mode="lr-tb" unicode-bidi="normal" text-decoration="none" transform="matrix(1 0 0 1 2289.89 540)">認知</text><g><g><g><path d="M2209.69 477.132 2047.22 477.132C2042.25 477.181 2038.24 481.196 2038.19 486.164L2038.19 595.8C2038.14 600.744 2042.11 604.788 2047.06 604.832 2047.11 604.832 2047.17 604.832 2047.22 604.832L2146.51 604.832 2182.61 641.73 2182.61 605.092 2209.69 605.092C2214.66 605.043 2218.67 601.028 2218.72 596.061L2218.72 486.424C2218.78 481.368 2214.74 477.214 2209.69 477.132ZM2122.66 498.406 2134.36 498.406 2134.36 553.423 2122.66 553.423ZM2128.5 580.75C2123.11 580.752 2118.74 576.384 2118.74 570.994 2118.74 565.604 2123.1 561.234 2128.49 561.232 2133.88 561.23 2138.25 565.599 2138.26 570.988 2138.26 570.989 2138.26 570.99 2138.26 570.991 2138.31 576.329 2134.02 580.698 2128.68 580.75 2128.63 580.75 2128.58 580.75 2128.52 580.75Z" fill="#FFFFFF" fill-rule="nonzero" fill-opacity="1"/></g></g></g><text fill="#FFFFFF" fill-opacity="1" font-family="07LogoTypeGothic7,07LogoTypeGothic7_MSFontService,sans-serif" font-style="normal" font-variant="normal" font-weight="700" font-stretch="normal" font-size="50" text-anchor="start" direction="ltr" writing-mode="lr-tb" unicode-bidi="normal" text-decoration="none" transform="matrix(1 0 0 1 2279.34 632)">どういう状況か</text><path d="M3488 469.5C3488 444.923 3507.92 425 3532.5 425L4147.5 425C4172.08 425 4192 444.923 4192 469.5L4192 647.499C4192 672.076 4172.08 692 4147.5 692L3532.5 692C3507.92 692 3488 672.076 3488 647.499Z" fill="#0B76A0" fill-rule="evenodd" fill-opacity="1"/><text fill="#FFFFFF" fill-opacity="1" font-family="07LogoTypeGothic7,07LogoTypeGothic7_MSFontService,sans-serif" font-style="normal" font-variant="normal" font-weight="400" font-stretch="normal" font-size="83" text-anchor="start" direction="ltr" writing-mode="lr-tb" unicode-bidi="normal" text-decoration="none" transform="matrix(1 0 0 1 3798.89 541)">動機づけ</text><g><g><g><path d="M3645.03 625.25C3645.03 648.291 3626.35 666.969 3603.31 666.969 3580.27 666.969 3561.59 648.291 3561.59 625.25 3561.59 602.209 3580.27 583.531 3603.31 583.531 3626.35 583.531 3645.03 602.209 3645.03 625.25Z" fill="#FFFFFF" fill-rule="nonzero" fill-opacity="1"/><path d="M3733.48 499.259 3767.41 450.031 3662.83 554.606 3733.75 456.15 3662.83 530.131 3681.19 496.2 3638.08 545.428 3644.2 527.072 3588.85 574.353C3593.58 572.962 3598.31 572.406 3603.31 572.406 3632.52 572.406 3656.16 596.047 3656.16 625.25 3656.16 632.203 3654.77 638.6 3652.54 644.719L3709 582.419 3693.7 585.478 3736.81 548.487 3699.54 564.062 3755.17 508.437 3715.12 533.191 3767.41 477.844 3733.48 499.259Z" fill="#FFFFFF" fill-rule="nonzero" fill-opacity="1"/><path d="M3691.48 480.069C3693.7 481.459 3696.76 480.347 3698.15 477.566 3700.1 474.228 3699.82 474.784 3702.05 461.434 3702.05 461.434 3691.76 470.056 3690.09 472.837 3688.98 475.619 3689.25 478.678 3691.48 480.069Z" fill="#FFFFFF" fill-rule="nonzero" fill-opacity="1"/><path d="M3727.36 573.241C3728.75 575.466 3731.81 575.744 3734.59 574.075 3737.09 572.406 3750.72 559.891 3750.72 559.891 3750.72 559.891 3732.08 564.619 3729.58 566.287 3727.08 567.956 3725.97 571.294 3727.36 573.241Z" fill="#FFFFFF" fill-rule="nonzero" fill-opacity="1"/></g></g></g><text fill="#FFFFFF" fill-opacity="1" font-family="07LogoTypeGothic7,07LogoTypeGothic7_MSFontService,sans-serif" font-style="normal" font-variant="normal" font-weight="700" font-stretch="normal" font-size="55" text-anchor="start" direction="ltr" writing-mode="lr-tb" unicode-bidi="normal" text-decoration="none" transform="matrix(1 0 0 1 3800.97 643)">何をしたいか</text><path d="M2725 470.834C2725 446.073 2745.07 426 2769.83 426L3384.17 426C3408.93 426 3429 446.073 3429 470.834L3429 650.166C3429 674.927 3408.93 695 3384.17 695L2769.83 695C2745.07 695 2725 674.927 2725 650.166Z" fill="#0B76A0" fill-rule="evenodd" fill-opacity="1"/><text fill="#FFFFFF" fill-opacity="1" font-family="07LogoTypeGothic7,07LogoTypeGothic7_MSFontService,sans-serif" font-style="normal" font-variant="normal" font-weight="400" font-stretch="normal" font-size="83" text-anchor="start" direction="ltr" writing-mode="lr-tb" unicode-bidi="normal" text-decoration="none" transform="matrix(1 0 0 1 3056.2 543)">情動</text><g><g><g><path d="M135.422 140.991C126.309 136.941 117.956 130.866 111.375 122.766 107.578 118.209 104.541 113.4 102.263 108.084L20.25 118.716 27.0844 173.897C30.8813 204.525 58.725 226.041 89.3531 222.244 119.981 218.447 141.497 190.603 137.7 159.975L135.422 140.991ZM90.1125 135.928C91.6313 133.65 94.6688 132.891 97.2 134.156L109.097 141.497C111.375 143.016 112.134 146.053 110.869 148.584 109.856 150.103 108.338 151.116 106.566 151.116 105.553 151.116 104.794 150.863 104.034 150.356L92.1375 143.016C89.6063 141.497 88.8469 138.459 90.1125 135.928M50.625 149.344 59.7375 138.966C61.5094 136.941 64.8 136.688 66.825 138.459 68.85 140.231 69.1031 143.522 67.3313 145.547L58.2188 155.925C57.2063 156.938 55.9406 157.697 54.4219 157.697 53.1563 157.697 52.1438 157.191 51.1313 156.431 49.1063 154.659 48.8531 151.369 50.625 149.344M114.413 188.325C112.134 190.097 109.097 189.591 107.325 187.313 101.756 179.972 92.8969 176.175 83.7844 177.441 74.6719 178.453 67.0781 184.528 63.5344 192.881 62.775 194.906 60.75 195.919 58.9781 195.919 58.2188 195.919 57.7125 195.666 56.9531 195.413 54.4219 194.4 53.1563 191.363 54.1688 188.831 59.2313 177.188 70.1156 168.834 82.5188 167.316 95.175 165.797 107.578 171.113 115.425 181.238 117.197 183.516 116.691 186.806 114.413 188.325" fill="#FFFFFF" fill-rule="nonzero" fill-opacity="1" transform="matrix(1 0 0 1.01235 2783 435)"/><path d="M111.881 20.25 106.819 75.6844C103.781 106.313 126.309 133.65 156.938 136.434 187.566 139.219 214.65 116.691 217.434 86.0625L222.497 30.6281 111.881 20.25ZM136.941 51.1313 150.863 52.3969C153.647 52.65 155.672 55.1813 155.419 57.9656 155.166 60.4969 152.888 62.5219 150.356 62.5219 150.103 62.5219 150.103 62.5219 149.85 62.5219L135.928 61.2563C133.144 61.0031 131.119 58.4719 131.372 55.6875 131.625 52.9031 134.156 50.8781 136.941 51.1313M191.363 100.238C184.528 109.603 173.644 115.425 162.253 115.425 161.241 115.425 159.975 115.425 158.963 115.172 146.306 113.906 135.169 106.059 129.853 94.6688 128.588 92.1375 129.853 89.1 132.384 87.8344 134.916 86.5688 137.953 87.8344 139.219 90.3656 143.016 98.7188 151.116 104.288 159.975 105.047 169.088 105.806 177.947 101.756 183.263 94.4156 184.781 92.1375 188.072 91.6313 190.35 93.15 192.375 94.6688 192.881 97.9594 191.363 100.238M191.869 66.3188C191.616 66.3188 191.616 66.3188 191.363 66.3188L177.441 65.0531C174.656 64.8 172.631 62.2688 172.884 59.4844 173.138 56.7 175.669 54.675 178.453 54.9281L192.375 56.1938C195.159 56.4469 197.184 58.9781 196.931 61.7625 196.678 64.2938 194.4 66.3188 191.869 66.3188" fill="#FFFFFF" fill-rule="nonzero" fill-opacity="1" transform="matrix(1 0 0 1.01235 2783 435)"/></g></g></g><text fill="#FFFFFF" fill-opacity="1" font-family="07LogoTypeGothic7,07LogoTypeGothic7_MSFontService,sans-serif" font-style="normal" font-variant="normal" font-weight="700" font-stretch="normal" font-size="55" text-anchor="start" direction="ltr" writing-mode="lr-tb" unicode-bidi="normal" text-decoration="none" transform="matrix(1 0 0 1 3052.66 635)">どう感じたか</text></g></g></svg>