<svg width="4308" height="2127" xmlns="http://www.w3.org/2000/svg" xmlns:xlink="http://www.w3.org/1999/xlink" xml:space="preserve" overflow="hidden"><defs><clipPath id="clip0"><rect x="41" y="288" width="4308" height="2127"/></clipPath><clipPath id="clip1"><rect x="41" y="288" width="4308" height="2127"/></clipPath><linearGradient x1="-4.2317e-05" y1="0.000180446" x2="234.734" y2="0.000180446" gradientUnits="userSpaceOnUse" spreadMethod="reflect" id="stroke2"><stop offset="0" stop-color="#156082" stop-opacity="1"/><stop offset="0.98" stop-color="#0E9ED5" stop-opacity="1"/><stop offset="1" stop-color="#0E9ED5" stop-opacity="1"/></linearGradient><linearGradient x1="-4.2317e-05" y1="0.000180446" x2="234.734" y2="0.000180446" gradientUnits="userSpaceOnUse" spreadMethod="reflect" id="stroke3"><stop offset="0" stop-color="#156082" stop-opacity="1"/><stop offset="0.98" stop-color="#0E9ED5" stop-opacity="1"/><stop offset="1" stop-color="#0E9ED5" stop-opacity="1"/></linearGradient><linearGradient x1="-4.10294e-05" y1="0.000180446" x2="241.327" y2="0.000180446" gradientUnits="userSpaceOnUse" spreadMethod="reflect" id="stroke4"><stop offset="0" stop-color="#156082" stop-opacity="1"/><stop offset="0.98" stop-color="#0E9ED5" stop-opacity="1"/><stop offset="1" stop-color="#0E9ED5" stop-opacity="1"/></linearGradient><linearGradient x1="-4.60475e-05" y1="0.000180446" x2="217.713" y2="0.000180446" gradientUnits="userSpaceOnUse" spreadMethod="reflect" id="stroke5"><stop offset="0" stop-color="#156082" stop-opacity="1"/><stop offset="0.98" stop-color="#0E9ED5" stop-opacity="1"/><stop offset="1" stop-color="#0E9ED5" stop-opacity="1"/></linearGradient></defs><g clip-path="url(#clip0)" transform="translate(-41 -288)"><g clip-path="url(#clip1)"><rect x="2039" y="290" width="2310" height="1869" fill="#CAEEFB" fill-opacity="1"/><rect x="3482" y="290" width="863" height="217" fill="#3FA0CC" fill-opacity="1"/><text fill="#FFFFFF" fill-opacity="1" font-family="07LogoTypeGothic7,07LogoTypeGothic7_MSFontService,sans-serif" font-style="normal" font-variant="normal" font-weight="400" font-stretch="normal" font-size="92" text-anchor="start" direction="ltr" writing-mode="lr-tb" unicode-bidi="normal" text-decoration="none" transform="matrix(1 0 0 1 3546.97 435)">体験者の内的状態</text><path d="M0 0 210.099 0.000360892" stroke="url(#stroke2)" stroke-width="49.2708" stroke-linecap="butt" stroke-linejoin="miter" stroke-miterlimit="8" fill="none" fill-rule="evenodd" transform="matrix(-1 0 0 1 3655.6 1947.5)"/><path d="M0 0 210.099 0.000360892" stroke="url(#stroke3)" stroke-width="49.2708" stroke-linecap="butt" stroke-linejoin="miter" stroke-miterlimit="8" fill="none" fill-rule="evenodd" transform="matrix(-1 0 0 1 3655.6 1535.5)"/><path d="M0 0 216.692 0.000360892" stroke="url(#stroke4)" stroke-width="49.2708" stroke-linecap="butt" stroke-linejoin="miter" stroke-miterlimit="8" fill="none" fill-rule="evenodd" transform="matrix(-1 0 0 1 3662.19 1141.5)"/><path d="M0 0 193.077 0.000360892" stroke="url(#stroke5)" stroke-width="49.2708" stroke-linecap="butt" stroke-linejoin="miter" stroke-miterlimit="8" fill="none" fill-rule="evenodd" transform="matrix(-1 0 0 1 3656.58 738.5)"/><path d="M3056.75 871 3056.75 928.427 3029.25 928.427 3029.25 871ZM3084.25 914.677 3043 997.177 3001.75 914.677Z" fill="#0B76A0" fill-rule="nonzero" fill-opacity="1"/><path d="M3064.75 1266 3064.75 1327.11 3037.25 1327.11 3037.25 1266ZM3092.25 1313.36 3051 1395.86 3009.75 1313.36Z" fill="#0B76A0" fill-rule="nonzero" fill-opacity="1"/><path d="M3064.75 1663 3064.75 1738.77 3037.25 1738.77 3037.25 1663ZM3092.25 1725.02 3051 1807.52 3009.75 1725.02Z" fill="#0B76A0" fill-rule="nonzero" fill-opacity="1"/><rect x="68.0001" y="290" width="1094" height="1869" fill="#D9F2D0" fill-opacity="1"/><text fill="#275317" fill-opacity="1" font-family="07LogoTypeGothic7,07LogoTypeGothic7_MSFontService,sans-serif" font-style="normal" font-variant="normal" font-weight="700" font-stretch="normal" font-size="110" text-anchor="start" direction="ltr" writing-mode="lr-tb" unicode-bidi="normal" text-decoration="none" transform="matrix(1 0 0 1 109.89 927)">エンタテインメント</text><text fill="#275317" fill-opacity="1" font-family="07LogoTypeGothic7,07LogoTypeGothic7_MSFontService,sans-serif" font-style="normal" font-variant="normal" font-weight="700" font-stretch="normal" font-size="110" text-anchor="start" direction="ltr" writing-mode="lr-tb" unicode-bidi="normal" text-decoration="none" transform="matrix(1 0 0 1 334.473 1059)">コンテンツ</text><rect x="1635.5" y="1806.5" width="806" height="267" stroke="#4EA72E" stroke-width="6.875" stroke-linecap="butt" stroke-linejoin="miter" stroke-miterlimit="8" stroke-opacity="1" fill="#FFFFFF" fill-opacity="1"/><text fill="#275317" fill-opacity="1" font-family="07LogoTypeGothic7,07LogoTypeGothic7_MSFontService,sans-serif" font-style="normal" font-variant="normal" font-weight="400" font-stretch="normal" font-size="83" text-anchor="start" direction="ltr" writing-mode="lr-tb" unicode-bidi="normal" text-decoration="none" transform="matrix(1 0 0 1 2100 1972)">行動</text><path d="M2639.88 1955.02 2509.66 1954.19 2509.84 1926.69 2640.06 1927.52ZM2523.23 1981.78 2441 1940 2523.76 1899.28Z" fill="#0B76A0" fill-rule="nonzero" fill-opacity="1"/><path d="M1019 730.25 1566.37 730.25 1566.37 757.75 1019 757.75ZM1552.62 702.75 1635.12 744 1552.62 785.25Z" fill="#4EA72E" fill-rule="nonzero" fill-opacity="1"/><text fill="#275317" fill-opacity="1" font-family="07LogoTypeGothic7,07LogoTypeGothic7_MSFontService,sans-serif" font-style="normal" font-variant="normal" font-weight="400" font-stretch="normal" font-size="83" text-anchor="start" direction="ltr" writing-mode="lr-tb" unicode-bidi="normal" text-decoration="none" transform="matrix(1 0 0 1 1109.92 603)">コンテンツの</text><text fill="#275317" fill-opacity="1" font-family="07LogoTypeGothic7,07LogoTypeGothic7_MSFontService,sans-serif" font-style="normal" font-variant="normal" font-weight="400" font-stretch="normal" font-size="83" text-anchor="start" direction="ltr" writing-mode="lr-tb" unicode-bidi="normal" text-decoration="none" transform="matrix(1 0 0 1 1274.92 702)">表現</text><path d="M7.79809e-06-13.75 567.595-13.7497 567.595 13.7503-7.79809e-06 13.75ZM553.845-41.2497 636.345 0.000360892 553.845 41.2503Z" fill="#4EA72E" fill-rule="nonzero" fill-opacity="1" transform="matrix(-1 0 0 1 1635.34 1945)"/><text fill="#275317" fill-opacity="1" font-family="07LogoTypeGothic7,07LogoTypeGothic7_MSFontService,sans-serif" font-style="normal" font-variant="normal" font-weight="400" font-stretch="normal" font-size="83" text-anchor="start" direction="ltr" writing-mode="lr-tb" unicode-bidi="normal" text-decoration="none" transform="matrix(1 0 0 1 1183.06 1806)">フィード</text><text fill="#275317" fill-opacity="1" font-family="07LogoTypeGothic7,07LogoTypeGothic7_MSFontService,sans-serif" font-style="normal" font-variant="normal" font-weight="400" font-stretch="normal" font-size="83" text-anchor="start" direction="ltr" writing-mode="lr-tb" unicode-bidi="normal" text-decoration="none" transform="matrix(1 0 0 1 1224.31 1905)">バック</text><rect x="1635.5" y="605.5" width="806" height="266" stroke="#4EA72E" stroke-width="6.875" stroke-linecap="butt" stroke-linejoin="miter" stroke-miterlimit="8" stroke-opacity="1" fill="#FFFFFF" fill-opacity="1"/><text fill="#275317" fill-opacity="1" font-family="07LogoTypeGothic7,07LogoTypeGothic7_MSFontService,sans-serif" font-style="normal" font-variant="normal" font-weight="400" font-stretch="normal" font-size="83" text-anchor="start" direction="ltr" writing-mode="lr-tb" unicode-bidi="normal" text-decoration="none" transform="matrix(1 0 0 1 2058.75 770)">感覚器</text><path d="M2441 724.25 2571.22 724.25 2571.22 751.75 2441 751.75ZM2557.47 696.75 2639.97 738 2557.47 779.25Z" fill="#0B76A0" fill-rule="nonzero" fill-opacity="1"/><g><g><g><path d="M189.369 5.125 189.369 5.125C191.162 11.7875 196.031 17.425 202.437 20.5 196.031 23.575 191.419 29.2125 189.369 35.875 187.575 29.2125 182.706 23.575 176.3 20.5 182.706 17.425 187.575 11.7875 189.369 5.125Z" fill="#275317" fill-rule="nonzero" fill-opacity="1" transform="matrix(1 0 0 1 479 1223)"/><path d="M25.3687 61.4999 25.3687 61.4999C27.1625 68.1624 32.0312 73.7999 38.4375 76.8749 32.0312 79.9499 27.4187 85.5874 25.3687 92.2499 23.575 85.5874 18.7062 79.9499 12.3 76.8749 18.7062 73.7999 23.575 68.1624 25.3687 61.4999Z" fill="#275317" fill-rule="nonzero" fill-opacity="1" transform="matrix(1 0 0 1 479 1223)"/><path d="M50.7374 10.25 50.7374 10.25C52.275 15.8875 56.3749 20.5 61.4999 23.0625 56.1187 25.625 52.275 30.2375 50.7374 35.875 49.2 30.2375 45.1 25.625 39.975 23.0625 45.1 20.5 49.2 15.8875 50.7374 10.25Z" fill="#275317" fill-rule="nonzero" fill-opacity="1" transform="matrix(1 0 0 1 479 1223)"/><path d="M219.862 51.25 219.862 51.25C221.4 56.8874 225.5 61.4999 230.625 64.0624 225.244 66.6249 221.4 71.2374 219.862 76.8749 218.325 71.2374 214.225 66.6249 209.1 64.0624 214.225 61.4999 218.325 56.8874 219.862 51.25Z" fill="#275317" fill-rule="nonzero" fill-opacity="1" transform="matrix(1 0 0 1 479 1223)"/><path d="M123 101.219C120.95 101.219 119.156 99.4249 119.156 97.3749L119.156 71.7499C119.156 69.6999 120.95 67.9062 123 67.9062 125.05 67.9062 126.844 69.6999 126.844 71.7499L126.844 97.3749C126.844 99.4249 125.05 101.219 123 101.219Z" fill="#275317" fill-rule="nonzero" fill-opacity="1" transform="matrix(1 0 0 1 479 1223)"/><path d="M123 60.2187C120.95 60.2187 119.156 58.4249 119.156 56.3749L119.156 35.875C119.156 33.825 120.95 32.0312 123 32.0312 125.05 32.0312 126.844 33.825 126.844 35.875L126.844 56.3749C126.844 58.4249 125.05 60.2187 123 60.2187Z" fill="#275317" fill-rule="nonzero" fill-opacity="1" transform="matrix(1 0 0 1 479 1223)"/><path d="M123 24.3437C120.95 24.3437 119.156 22.55 119.156 20.5L119.156 10.25C119.156 8.19999 120.95 6.40624 123 6.40624 125.05 6.40624 126.844 8.19999 126.844 10.25L126.844 20.5C126.844 22.55 125.05 24.3437 123 24.3437Z" fill="#275317" fill-rule="nonzero" fill-opacity="1" transform="matrix(1 0 0 1 479 1223)"/><path d="M151.187 83.2812C150.931 83.2812 150.675 83.2812 150.419 83.2812 148.369 82.7687 147.087 80.7187 147.6 78.6687L151.956 58.6812C152.469 56.6312 154.519 55.3499 156.569 55.8624 158.619 56.3749 159.9 58.4249 159.387 60.4749L155.031 80.4624C154.519 81.9999 152.981 83.2812 151.187 83.2812Z" fill="#275317" fill-rule="nonzero" fill-opacity="1" transform="matrix(1 0 0 1 479 1223)"/><path d="M158.875 48.175C158.619 48.175 158.362 48.175 158.106 48.175 156.056 47.6625 154.775 45.6125 155.287 43.5625L155.287 43.5625 158.619 28.4437C159.131 26.3937 160.925 25.1125 163.231 25.3687 165.281 25.8812 166.562 27.675 166.306 29.9812 166.306 29.9812 166.306 29.9812 166.306 30.2375L162.975 45.3562C162.206 46.8937 160.669 48.175 158.875 48.175Z" fill="#275317" fill-rule="nonzero" fill-opacity="1" transform="matrix(1 0 0 1 479 1223)"/><path d="M176.812 78.1562C174.762 78.1562 172.969 76.3624 172.969 74.3124 172.969 73.5437 173.225 72.7749 173.737 72.0062L191.162 46.6375C192.444 44.8437 194.75 44.5875 196.544 45.8687 198.081 47.15 198.594 49.2 197.569 50.9937L180.144 76.3624C179.375 77.6437 178.094 78.1562 176.812 78.1562Z" fill="#275317" fill-rule="nonzero" fill-opacity="1" transform="matrix(1 0 0 1 479 1223)"/><path d="M94.8124 83.2812C93.0187 83.2812 91.4812 81.9999 90.9687 80.2062L85.5874 55.0937C85.0749 53.0437 86.6124 50.9937 88.6624 50.4812 90.7124 49.9687 92.7624 51.25 93.0187 53.2999L98.3999 78.4124C98.9124 80.4624 97.6312 82.5124 95.5812 83.0249 95.3249 83.2812 95.0687 83.2812 94.8124 83.2812Z" fill="#275317" fill-rule="nonzero" fill-opacity="1" transform="matrix(1 0 0 1 479 1223)"/><path d="M86.0999 43.3062C84.3062 43.3062 82.7687 42.025 82.2562 40.2312L80.2062 30.2375C79.6937 28.1875 80.9749 26.1375 83.0249 25.625 85.0749 25.1125 87.1249 26.3937 87.6374 28.4437 87.6374 28.4437 87.6374 28.4437 87.6374 28.7L89.6874 38.6937C90.1999 40.7437 88.9187 42.7937 86.8687 43.3062 86.6124 43.3062 86.3562 43.3062 86.0999 43.3062Z" fill="#275317" fill-rule="nonzero" fill-opacity="1" transform="matrix(1 0 0 1 479 1223)"/><path d="M69.1874 78.1562C67.9062 78.1562 66.6249 77.6437 66.1124 76.6187L48.6875 51.25C47.6625 49.4562 48.175 47.15 49.9687 45.8687 51.7625 44.8437 53.8125 45.1 55.0937 46.8937L72.5187 72.2624C73.7999 74.0562 73.2874 76.3624 71.4937 77.6437 70.7249 77.8999 69.9562 78.1562 69.1874 78.1562Z" fill="#275317" fill-rule="nonzero" fill-opacity="1" transform="matrix(1 0 0 1 479 1223)"/><path d="M235.237 209.869 227.55 126.844C227.294 124.281 224.987 122.231 222.425 122.231 221.4 122.231 219.862 122.231 218.581 122.231L217.3 107.369 212.687 107.112C208.844 106.856 205 107.112 201.412 107.369L200.131 93.5312 196.287 92.7624C169.381 89.4312 142.475 98.3999 123 117.362 103.525 98.3999 76.6187 89.4312 49.7125 92.7624L45.8687 93.5312 44.5875 107.369C40.7437 107.112 37.1562 106.856 33.3125 107.112L28.9562 107.369 27.675 122.231C26.1375 122.231 24.8562 122.231 23.8312 122.231 21.2687 122.231 18.9625 124.281 18.7062 126.844L11.0187 209.869C10.5062 212.687 12.5562 215.25 15.375 215.506 15.6312 215.506 15.8875 215.506 16.1437 215.506 31.775 214.994 75.5937 216.019 111.212 239.337 113.006 240.362 114.8 241.131 116.85 241.131L129.662 241.131C131.712 241.131 133.506 240.619 135.044 239.594 172.456 216.275 214.994 215.25 230.112 215.762 232.931 215.762 235.237 213.712 235.494 210.894 235.237 210.125 235.237 210.125 235.237 209.869ZM128.125 126.587C144.525 109.675 167.331 100.962 190.65 102.244L197.569 181.681C185.525 183.987 154.262 191.675 128.125 214.225L128.125 126.587ZM55.3499 102.5C78.6687 101.219 101.475 109.931 117.875 126.844L117.875 214.481C91.7374 191.931 60.4749 184.244 48.4312 181.937L55.3499 102.5ZM30.75 197.312 38.4375 117.106C39.975 117.106 41.7687 117.362 43.8187 117.362L37.4125 190.65 42.2812 191.162C42.7937 191.162 86.0999 196.8 116.337 226.781 82.7687 201.156 45.3562 197.825 30.75 197.312ZM129.662 227.294C160.412 197.056 203.462 191.162 203.719 191.162L208.587 190.65 202.181 117.362C204.231 117.106 206.025 117.106 207.562 117.106L215.25 197.312C200.644 197.825 163.231 201.412 129.662 227.294Z" fill="#275317" fill-rule="nonzero" fill-opacity="1" transform="matrix(1 0 0 1 479 1223)"/></g></g></g><g><g><g><path d="M187.062 120.437C182.706 120.437 179.375 117.106 179.375 112.75 179.375 108.394 182.706 105.062 187.062 105.062 191.419 105.062 194.75 108.394 194.75 112.75 194.75 117.106 191.419 120.437 187.062 120.437ZM171.687 135.812C167.331 135.812 164 132.481 164 128.125 164 123.769 167.331 120.437 171.687 120.437 176.044 120.437 179.375 123.769 179.375 128.125 179.375 132.481 176.044 135.812 171.687 135.812ZM156.312 120.437C151.956 120.437 148.625 117.106 148.625 112.75 148.625 108.394 151.956 105.062 156.312 105.062 160.669 105.062 164 108.394 164 112.75 164 117.106 160.669 120.437 156.312 120.437ZM171.687 89.6874C176.044 89.6874 179.375 93.0187 179.375 97.3749 179.375 101.731 176.044 105.062 171.687 105.062 167.331 105.062 164 101.731 164 97.3749 164 93.0187 167.331 89.6874 171.687 89.6874ZM89.6874 117.875 79.4374 117.875 79.4374 128.125C79.4374 130.944 77.1312 133.25 74.3124 133.25 71.4937 133.25 69.1874 130.944 69.1874 128.125L69.1874 117.875 58.9374 117.875C56.1187 117.875 53.8125 115.569 53.8125 112.75 53.8125 109.931 56.1187 107.625 58.9374 107.625L69.1874 107.625 69.1874 97.3749C69.1874 94.5562 71.4937 92.2499 74.3124 92.2499 77.1312 92.2499 79.4374 94.5562 79.4374 97.3749L79.4374 107.625 89.6874 107.625C92.5062 107.625 94.8124 109.931 94.8124 112.75 94.8124 115.569 92.5062 117.875 89.6874 117.875ZM181.937 51.25C151.7 51.25 167.075 66.6249 123 66.6249 78.9249 66.6249 94.2999 51.25 64.0624 51.25 31.775 51.25-9.22499 194.75 33.3125 194.75 72.5187 194.75 57.6562 158.875 123 158.875 188.344 158.875 173.481 194.75 212.687 194.75 255.225 194.75 214.225 51.25 181.937 51.25Z" fill="#275317" fill-rule="nonzero" fill-opacity="1" transform="matrix(1 0 0 1.00407 753 1258)"/></g></g></g><g><g><g><path d="M174.958 20.5833 51.4583 20.5833 51.4583 223.844 195.542 223.844 195.542 20.5833ZM190.396 25.7291 190.396 38.5937 174.958 38.5937 174.958 25.7291ZM77.1874 84.8393C77.2157 84.8624 77.2389 84.8856 77.2672 84.9062 77.2389 84.9268 77.2157 84.9499 77.1874 84.9731ZM72.0416 56.6041 56.6041 56.6041 56.6041 43.7395 72.0416 43.7395ZM72.0416 61.75 72.0416 74.6145 56.6041 74.6145 56.6041 61.75ZM72.0416 79.7604 72.0416 92.6249 56.6041 92.6249 56.6041 79.7604ZM72.0416 97.7708 72.0416 110.635 56.6041 110.635 56.6041 97.7708ZM72.0416 115.781 72.0416 128.646 56.6041 128.646 56.6041 115.781ZM72.0416 133.792 72.0416 146.656 56.6041 146.656 56.6041 133.792ZM72.0416 151.802 72.0416 164.667 56.6041 164.667 56.6041 151.802ZM72.0416 169.812 72.0416 182.677 56.6041 182.677 56.6041 169.812ZM72.0416 187.823 72.0416 200.687 56.6041 200.687 56.6041 187.823ZM77.1874 159.454C77.2157 159.477 77.2389 159.5 77.2672 159.521 77.2389 159.541 77.2157 159.564 77.1874 159.588ZM77.1874 149.229 77.1874 95.1978C77.1874 90.9348 80.6431 87.4791 84.9062 87.4791L162.094 87.4791C166.357 87.4791 169.812 90.9348 169.812 95.1978L169.812 149.229C169.812 153.492 166.357 156.948 162.094 156.948L84.9062 156.948C80.6431 156.948 77.1874 153.492 77.1874 149.229ZM169.812 84.9731C169.784 84.9499 169.761 84.9268 169.733 84.9062 169.761 84.8856 169.784 84.8624 169.812 84.8393ZM169.812 159.454 169.812 159.588C169.784 159.564 169.761 159.541 169.733 159.521 169.761 159.5 169.784 159.477 169.812 159.454ZM174.958 187.823 190.396 187.823 190.396 200.687 174.958 200.687ZM174.958 182.677 174.958 169.812 190.396 169.812 190.396 182.677ZM174.958 164.667 174.958 151.802 190.396 151.802 190.396 164.667ZM174.958 146.656 174.958 133.792 190.396 133.792 190.396 146.656ZM174.958 128.646 174.958 115.781 190.396 115.781 190.396 128.646ZM174.958 110.635 174.958 97.7708 190.396 97.7708 190.396 110.635ZM174.958 92.6249 174.958 79.7604 190.396 79.7604 190.396 92.6249ZM174.958 74.6145 174.958 61.75 190.396 61.75 190.396 74.6145ZM174.958 56.6041 174.958 43.7395 190.396 43.7395 190.396 56.6041ZM169.812 25.7291 169.812 74.6145C169.812 78.8776 166.357 82.3333 162.094 82.3333L84.9062 82.3333C80.6431 82.3333 77.1874 78.8776 77.1874 74.6145L77.1874 25.7291ZM72.0416 25.7291 72.0416 38.5937 56.6041 38.5937 56.6041 25.7291ZM56.6041 218.698 56.6041 205.833 72.0416 205.833 72.0416 218.698ZM77.1874 218.698 77.1874 169.812C77.1874 165.549 80.6431 162.094 84.9062 162.094L162.094 162.094C166.357 162.094 169.812 165.549 169.812 169.812L169.812 218.698ZM174.958 218.698 174.958 205.833 190.396 205.833 190.396 218.698Z" fill="#275317" fill-rule="nonzero" fill-opacity="1" transform="matrix(6.12323e-17 1 -1 6.12324e-17 466 1258)"/></g></g></g><g><g><g><path d="M128.012 118.591C135.652 109.844 148.437 95.2176 148.437 79.1666 148.454 49.6539 124.543 25.7155 95.0303 25.6987 68.6732 25.6834 46.2416 44.8884 42.1958 70.9332 40.2166 84.3124 45.5208 97.1572 49.776 107.449 51.3181 110.837 52.5822 114.345 53.5562 117.938 53.9916 120.115 54.4468 123.183 54.9416 126.449 57.5145 143.588 59.6718 155.127 65.8864 159.184 72.2789 163.658 79.8565 166.131 87.6572 166.289L89.3988 166.289C125.143 164.31 124.569 136.859 124.351 126.508 124.351 125.36 124.351 123.856 124.351 123.045 125.004 122.055 126.666 120.155 128.012 118.591ZM69.8447 75.8811C77.2426 67.213 88.9217 63.4989 99.9676 66.302 115.408 70.5429 124.513 86.4699 120.333 101.927 118.018 110.398 109.329 116.177 104.124 119.739 103.332 120.254 102.402 120.887 101.868 121.263 101.868 121.679 101.61 122.273 101.492 122.728 100.284 127.577 97.2957 139.491 83.5603 139.491 81.4121 139.446 79.2754 139.167 77.1874 138.66 73.7623 137.77 70.8812 135.458 69.2707 132.307 67.2977 128.649 67.023 124.31 68.5187 120.432 69.1666 118.344 71.3845 117.177 73.4723 117.825 75.5603 118.473 76.7274 120.691 76.0797 122.779 76.0347 122.923 75.9817 123.065 75.9207 123.203 75.2068 124.96 75.3232 126.945 76.2374 128.606 76.7676 129.715 77.7024 130.579 78.8499 131.021 89.7353 133.376 91.9915 128.052 93.7926 120.828 94.0311 119.181 94.6699 117.618 95.653 116.276 96.8397 115.081 98.1691 114.038 99.6113 113.169 103.886 110.319 111.051 105.569 112.575 99.9676 115.631 88.722 109.009 77.1245 97.7707 74.0405 89.6757 72.0689 81.1598 74.8156 75.7426 81.1457 72.89 84.2409 70.7488 87.9224 69.4687 91.9322 70.4578 94.0493 71.6934 96.0423 73.1499 97.8697 74.5151 99.5751 74.2406 102.064 72.5364 103.431 71.8345 103.994 70.9621 104.301 70.0624 104.302 68.8543 104.307 67.7102 103.761 66.9551 102.818 54.025 86.6913 56.616 63.1367 72.7422 50.2066 88.8682 37.2764 112.423 39.8673 125.353 55.9935 128.731 60.2064 131.157 65.1004 132.465 70.3395 133.012 72.46 131.736 74.6222 129.615 75.1686 127.495 75.7151 125.333 74.4391 124.786 72.3186 120.872 56.498 104.874 46.8458 89.0537 50.7598 75.6466 54.0769 66.3335 66.2491 66.6384 80.0572 67.6197 78.6001 68.6904 77.2054 69.8447 75.8811Z" fill="#275317" fill-rule="nonzero" fill-opacity="1" transform="matrix(1 0 0 1 1849 643)"/></g></g></g><g><g><g><path d="M1806.51 770.5C1821.95 755.656 1822.74 731.115 1808.09 715.281 1823.73 723.396 1836.59 735.865 1844.11 744.177 1836.2 751.896 1822.74 763.375 1806.51 770.5ZM1728.73 729.729C1735.26 724.188 1742.19 719.438 1749.71 715.479 1735.26 731.312 1736.05 755.656 1751.49 770.5 1735.26 763.375 1721.6 751.896 1713.89 744.177 1718.44 739.031 1723.39 734.281 1728.73 729.729ZM1779 773.667C1761.58 773.667 1747.33 759.417 1747.33 742 1747.33 724.583 1761.58 710.333 1779 710.333 1796.42 710.333 1810.67 724.583 1810.67 742 1810.67 759.417 1796.42 773.667 1779 773.667ZM1855.99 738.635C1844.51 725.177 1814.43 694.5 1779 694.5 1743.57 694.5 1713.49 725.177 1702.01 738.635 1699.04 742.198 1699.24 747.146 1702.41 750.51 1714.08 762.781 1743.97 789.5 1779 789.5 1814.03 789.5 1843.92 762.781 1855.79 750.51 1858.76 747.344 1858.96 742.198 1855.99 738.635Z" fill="#275317" fill-rule="nonzero" fill-opacity="1"/><path d="M1798.79 742C1798.79 752.931 1789.93 761.792 1779 761.792 1768.07 761.792 1759.21 752.931 1759.21 742 1759.21 731.069 1768.07 722.208 1779 722.208 1789.93 722.208 1798.79 731.069 1798.79 742Z" fill="#275317" fill-rule="nonzero" fill-opacity="1"/></g></g></g><g><g><g><path d="M1926.94 1865.14C1920.41 1865.14 1915.18 1870.36 1915.18 1876.64 1915.18 1876.64 1915.18 1876.64 1915.18 1876.64L1915.18 1927.89C1915.18 1929.45 1914.13 1930.5 1912.56 1930.5 1910.99 1930.5 1909.95 1929.45 1909.95 1927.89L1909.95 1851.28C1909.95 1845 1905.5 1839.77 1899.23 1838.99 1892.17 1838.21 1886.42 1843.7 1886.42 1850.76L1886.42 1927.89C1886.42 1929.45 1885.37 1930.5 1883.8 1930.5 1882.23 1930.5 1881.19 1929.45 1881.19 1927.89L1881.19 1834.81C1880.93 1828.27 1875.44 1823.3 1869.16 1823.56 1862.89 1823.56 1857.92 1828.53 1857.66 1834.81L1857.66 1927.89C1857.66 1929.45 1856.61 1930.5 1855.04 1930.5 1853.47 1930.5 1852.43 1929.45 1852.43 1927.89L1852.43 1850.76C1852.17 1844.22 1846.68 1839.25 1840.4 1839.51 1834.13 1839.77 1829.16 1844.74 1829.16 1850.76L1829.16 1955.6C1829.16 1955.86 1828.63 1955.86 1828.63 1955.6L1818.18 1909.58C1816.61 1902.52 1809.55 1898.08 1802.49 1899.65 1795.43 1901.22 1790.98 1908.28 1792.55 1915.34L1808.24 1985.93C1809.03 1988.81 1810.86 1991.42 1813.21 1993.25L1841.97 2015.47 1841.97 2035.08 1917.79 2035.08 1917.79 2022.01C1917.79 2003.45 1938.71 2002.14 1938.71 1967.1L1938.71 1876.9C1938.71 1870.36 1933.48 1865.14 1926.94 1865.14 1926.94 1865.14 1926.94 1865.14 1926.94 1865.14Z" fill="#275317" fill-rule="nonzero" fill-opacity="1"/></g></g></g><g><g><g><path d="M626.667 266.333 626.667 101.833 574.183 154.317C521.7 107.317 451.983 78.3333 376 78.3333 211.5 78.3333 78.3333 211.5 78.3333 376 78.3333 540.5 211.5 673.667 376 673.667 458.25 673.667 532.667 639.983 586.716 586.716L520.133 520.133C483.317 556.95 432.4 579.667 376 579.667 263.983 579.667 172.333 488.017 172.333 376 172.333 263.983 263.983 172.333 376 172.333 426.133 172.333 472.35 190.35 507.6 220.9L462.167 266.333 626.667 266.333Z" fill="#7F7F7F" fill-rule="nonzero" fill-opacity="1" transform="matrix(-1.00133 1.22628e-16 -1.22465e-16 -1 2574 1700)"/></g></g></g><text fill="#404040" fill-opacity="1" font-family="07LogoTypeGothic7,07LogoTypeGothic7_MSFontService,sans-serif" font-style="normal" font-variant="normal" font-weight="700" font-stretch="normal" font-size="147" text-anchor="start" direction="ltr" writing-mode="lr-tb" unicode-bidi="normal" text-decoration="none" transform="matrix(1 0 0 1 1265.31 1287)">一回以上</text><text fill="#404040" fill-opacity="1" font-family="07LogoTypeGothic7,07LogoTypeGothic7_MSFontService,sans-serif" font-style="normal" font-variant="normal" font-weight="700" font-stretch="normal" font-size="147" text-anchor="start" direction="ltr" writing-mode="lr-tb" unicode-bidi="normal" text-decoration="none" transform="matrix(1 0 0 1 1265.31 1463)">繰り返し</text><text fill="#275317" fill-opacity="1" font-family="07LogoTypeGothic7,07LogoTypeGothic7_MSFontService,sans-serif" font-style="normal" font-variant="normal" font-weight="400" font-stretch="normal" font-size="73" text-anchor="start" direction="ltr" writing-mode="lr-tb" unicode-bidi="normal" text-decoration="none" transform="matrix(1 0 0 1 268.082 1575)">映画</text><text fill="#275317" fill-opacity="1" font-family="07LogoTypeGothic7,07LogoTypeGothic7_MSFontService,sans-serif" font-style="normal" font-variant="normal" font-weight="400" font-stretch="normal" font-size="73" text-anchor="start" direction="ltr" writing-mode="lr-tb" unicode-bidi="normal" text-decoration="none" transform="matrix(1 0 0 1 527.061 1575)">漫画</text><text fill="#275317" fill-opacity="1" font-family="07LogoTypeGothic7,07LogoTypeGothic7_MSFontService,sans-serif" font-style="normal" font-variant="normal" font-weight="400" font-stretch="normal" font-size="73" text-anchor="start" direction="ltr" writing-mode="lr-tb" unicode-bidi="normal" text-decoration="none" transform="matrix(1 0 0 1 764.814 1576)">ゲーム</text><rect x="3656" y="605" width="598" height="1469" fill="#156082" fill-opacity="1"/><text fill="#FFFFFF" fill-opacity="1" font-family="07LogoTypeGothic7,07LogoTypeGothic7_MSFontService,sans-serif" font-style="normal" font-variant="normal" font-weight="400" font-stretch="normal" font-size="128" text-anchor="start" direction="ltr" writing-mode="lr-tb" unicode-bidi="normal" text-decoration="none" transform="matrix(1 0 0 1 3698.19 1093)">ユーザの</text><text fill="#FFFFFF" fill-opacity="1" font-family="07LogoTypeGothic7,07LogoTypeGothic7_MSFontService,sans-serif" font-style="normal" font-variant="normal" font-weight="400" font-stretch="normal" font-size="128" text-anchor="start" direction="ltr" writing-mode="lr-tb" unicode-bidi="normal" text-decoration="none" transform="matrix(1 0 0 1 3698.19 1247)">持つ文脈</text><text fill="#FFFFFF" fill-opacity="1" font-family="07LogoTypeGothic7,07LogoTypeGothic7_MSFontService,sans-serif" font-style="normal" font-variant="normal" font-weight="400" font-stretch="normal" font-size="83" text-anchor="start" direction="ltr" writing-mode="lr-tb" unicode-bidi="normal" text-decoration="none" transform="matrix(1 0 0 1 3872.35 1454)">属性</text><text fill="#FFFFFF" fill-opacity="1" font-family="07LogoTypeGothic7,07LogoTypeGothic7_MSFontService,sans-serif" font-style="normal" font-variant="normal" font-weight="400" font-stretch="normal" font-size="83" text-anchor="start" direction="ltr" writing-mode="lr-tb" unicode-bidi="normal" text-decoration="none" transform="matrix(1 0 0 1 3872.35 1553)">状況</text><text fill="#FFFFFF" fill-opacity="1" font-family="07LogoTypeGothic7,07LogoTypeGothic7_MSFontService,sans-serif" font-style="normal" font-variant="normal" font-weight="400" font-stretch="normal" font-size="83" text-anchor="start" direction="ltr" writing-mode="lr-tb" unicode-bidi="normal" text-decoration="none" transform="matrix(1 0 0 1 3872.35 1652)">記憶</text><text fill="#FFFFFF" fill-opacity="1" font-family="07LogoTypeGothic7,07LogoTypeGothic7_MSFontService,sans-serif" font-style="normal" font-variant="normal" font-weight="400" font-stretch="normal" font-size="83" text-anchor="start" direction="ltr" writing-mode="lr-tb" unicode-bidi="normal" text-decoration="none" transform="matrix(1 0 0 1 3939.96 1751)">:</text><rect x="3242" y="291" width="240" height="215" fill="#3FA0CC" fill-opacity="1"/><g><g><g><path d="M3399.67 357.813C3399.67 377.787 3383.47 393.979 3363.5 393.979 3343.53 393.979 3327.33 377.787 3327.33 357.813 3327.33 337.838 3343.53 321.646 3363.5 321.646 3383.47 321.646 3399.67 337.838 3399.67 357.813Z" fill="#FFFFFF" fill-rule="nonzero" fill-opacity="1"/><path d="M3435.83 475.354 3435.83 439.188C3435.83 433.763 3433.12 428.338 3428.6 424.721 3418.65 416.583 3406 411.158 3393.34 407.542 3384.3 404.829 3374.35 403.021 3363.5 403.021 3353.55 403.021 3343.61 404.829 3333.66 407.542 3321 411.158 3308.35 417.488 3298.4 424.721 3293.88 428.338 3291.17 433.763 3291.17 439.188L3291.17 475.354 3435.83 475.354Z" fill="#FFFFFF" fill-rule="nonzero" fill-opacity="1"/></g></g></g><g><g><g><path d="M239.021 93.1249C236.537 93.1249 234.364 93.4353 231.881 94.0561 232.502 91.8832 232.812 89.3999 232.812 86.9166 232.812 69.8437 218.844 55.8749 201.771 55.8749 194.631 55.8749 187.802 58.3583 182.525 62.3937 180.041 48.1145 167.314 37.25 152.104 37.25 137.825 37.25 125.719 47.1833 121.994 60.5312 116.406 52.1499 107.094 46.5624 96.2291 46.5624 79.1562 46.5624 65.1874 60.5312 65.1874 77.6041 65.1874 80.0874 65.4978 82.2603 66.1187 84.7437 63.6353 84.1228 61.4624 83.8124 58.9791 83.8124 41.9062 83.8124 27.9375 97.7811 27.9375 114.854 27.9375 131.927 41.9062 145.896 58.9791 145.896 58.9791 145.896 58.9791 145.896 59.2895 145.896 60.8416 161.727 74.1895 173.833 90.0207 173.833 97.1603 173.833 103.679 171.35 108.956 167.314 108.956 168.246 108.646 169.487 108.646 170.729 108.646 187.802 122.614 201.771 139.687 201.771 155.829 201.771 169.177 189.354 170.729 173.523 176.316 181.283 185.319 186.25 195.562 186.25 212.635 186.25 226.604 172.281 226.604 155.208 226.604 154.277 226.604 153.346 226.604 152.414 230.329 153.966 234.675 155.208 239.021 155.208 256.093 155.208 270.062 141.239 270.062 124.167 270.062 107.094 256.093 93.1249 239.021 93.1249Z" fill="#FFFFFF" fill-rule="nonzero" fill-opacity="1" transform="matrix(1 0 0 1 3811 647)"/><path d="M108.646 214.187C108.646 224.474 100.307 232.812 90.0207 232.812 79.7344 232.812 71.3958 224.474 71.3958 214.187 71.3958 203.901 79.7344 195.562 90.0207 195.562 100.307 195.562 108.646 203.901 108.646 214.187Z" fill="#FFFFFF" fill-rule="nonzero" fill-opacity="1" transform="matrix(1 0 0 1 3811 647)"/><path d="M66.7395 246.781C66.7395 254.496 60.4855 260.75 52.7708 260.75 45.0561 260.75 38.802 254.496 38.802 246.781 38.802 239.066 45.0561 232.812 52.7708 232.812 60.4855 232.812 66.7395 239.066 66.7395 246.781Z" fill="#FFFFFF" fill-rule="nonzero" fill-opacity="1" transform="matrix(1 0 0 1 3811 647)"/></g></g></g><path d="M7.29944-11.6525 565.161 337.807 550.562 361.112-7.29944 11.6525ZM568.107 307.203 616.124 385.957 524.31 377.118Z" fill="#4EA72E" fill-rule="nonzero" fill-opacity="1" transform="matrix(-1 0 0 1 1635.12 1940)"/><text fill="#275317" fill-opacity="1" font-family="07LogoTypeGothic7,07LogoTypeGothic7_MSFontService,sans-serif" font-style="normal" font-variant="normal" font-weight="400" font-stretch="normal" font-size="83" text-anchor="start" direction="ltr" writing-mode="lr-tb" unicode-bidi="normal" text-decoration="none" transform="matrix(1 0 0 1 1317.37 2273)">外界への行動</text><path d="M2640 649.334C2640 624.849 2659.85 605 2684.33 605L3418.67 605C3443.15 605 3463 624.849 3463 649.334L3463 826.666C3463 851.151 3443.15 871 3418.67 871L2684.33 871C2659.85 871 2640 851.151 2640 826.666Z" fill="#0F9ED5" fill-rule="evenodd" fill-opacity="1"/><text fill="#FFFFFF" fill-opacity="1" font-family="07LogoTypeGothic7,07LogoTypeGothic7_MSFontService,sans-serif" font-style="normal" font-variant="normal" font-weight="400" font-stretch="normal" font-size="83" text-anchor="start" direction="ltr" writing-mode="lr-tb" unicode-bidi="normal" text-decoration="none" transform="matrix(1 0 0 1 3051.2 721)">知覚</text><g><g><g><path d="M98.8623 209.178 208.729 182.66 208.729 61.9852 128.766 23.9067 24.2708 46.7067 24.2708 169.015ZM127.002 39.1973 179.276 64.0895 136.958 73.5745 100.92 81.6518 52.3327 55.4879ZM38.8333 160.316 38.8333 64.7594 92.581 93.7023 92.581 189.259ZM194.166 171.194 107.143 192.2 107.143 95.1828 144.967 86.7026 194.166 75.6764Z" fill="#FFFFFF" fill-rule="nonzero" fill-opacity="1" transform="matrix(1 0 0 1 2725 621)"/><path d="M125.456 44.1389 130.31 44.1389 130.31 53.8472 125.456 53.8472Z" fill="#FFFFFF" fill-rule="nonzero" fill-opacity="1" transform="matrix(1 0 0 1 2725 621)"/><path d="M125.456 95.1076 130.31 95.1076 130.31 104.816 125.456 104.816Z" fill="#FFFFFF" fill-rule="nonzero" fill-opacity="1" transform="matrix(1 0 0 1 2725 621)"/><path d="M125.456 112.097 130.31 112.097 130.31 121.805 125.456 121.805Z" fill="#FFFFFF" fill-rule="nonzero" fill-opacity="1" transform="matrix(1 0 0 1 2725 621)"/><path d="M125.456 61.1284 130.31 61.1284 130.31 70.8368 125.456 70.8368Z" fill="#FFFFFF" fill-rule="nonzero" fill-opacity="1" transform="matrix(1 0 0 1 2725 621)"/><path d="M125.456 129.087 130.31 129.087 130.31 138.795 125.456 138.795Z" fill="#FFFFFF" fill-rule="nonzero" fill-opacity="1" transform="matrix(1 0 0 1 2725 621)"/><path d="M163.869 156.171 168.723 156.171 168.723 165.879 163.869 165.879Z" fill="#FFFFFF" fill-rule="nonzero" fill-opacity="1" transform="matrix(0.412215 -0.911087 0.911088 0.412214 2676.04 867.157)"/><path d="M114.422 143.098 124.131 143.098 124.131 147.952 114.422 147.952Z" fill="#FFFFFF" fill-rule="nonzero" fill-opacity="1" transform="matrix(0.977077 -0.212894 0.212894 0.977075 2696.75 649.729)"/><path d="M48.0271 157.585 57.7354 157.585 57.7354 162.44 48.0271 162.44Z" fill="#FFFFFF" fill-rule="nonzero" fill-opacity="1" transform="matrix(0.977077 -0.212894 0.212894 0.977075 2692.15 635.927)"/><path d="M148.389 149.168 153.243 149.168 153.243 158.874 148.389 158.874Z" fill="#FFFFFF" fill-rule="nonzero" fill-opacity="1" transform="matrix(0.412104 -0.911137 0.911138 0.412103 2673.33 848.964)"/><path d="M179.349 163.173 184.203 163.173 184.203 172.881 179.349 172.881Z" fill="#FFFFFF" fill-rule="nonzero" fill-opacity="1" transform="matrix(0.412215 -0.911087 0.911088 0.412214 2678.76 885.377)"/><path d="M132.912 142.166 137.766 142.166 137.766 151.875 132.912 151.875Z" fill="#FFFFFF" fill-rule="nonzero" fill-opacity="1" transform="matrix(0.412104 -0.911137 0.911138 0.412103 2670.61 830.744)"/><path d="M64.6259 153.964 74.3342 153.964 74.3342 158.818 64.6259 158.818Z" fill="#FFFFFF" fill-rule="nonzero" fill-opacity="1" transform="matrix(0.977077 -0.212894 0.212894 0.977075 2693.3 639.378)"/><path d="M81.2246 150.343 90.933 150.343 90.933 155.197 81.2246 155.197Z" fill="#FFFFFF" fill-rule="nonzero" fill-opacity="1" transform="matrix(0.977077 -0.212894 0.212894 0.977075 2694.45 642.829)"/></g></g></g><text fill="#FFFFFF" fill-opacity="1" font-family="07LogoTypeGothic7,07LogoTypeGothic7_MSFontService,sans-serif" font-style="normal" font-variant="normal" font-weight="700" font-stretch="normal" font-size="55" text-anchor="start" direction="ltr" writing-mode="lr-tb" unicode-bidi="normal" text-decoration="none" transform="matrix(1 0 0 1 3049.99 816)">何があるか</text><path d="M2640 1043.5C2640 1018.92 2659.92 999 2684.5 999L3418.5 999C3443.08 999 3463 1018.92 3463 1043.5L3463 1221.5C3463 1246.08 3443.08 1266 3418.5 1266L2684.5 1266C2659.92 1266 2640 1246.08 2640 1221.5Z" fill="#0F9ED5" fill-rule="evenodd" fill-opacity="1"/><text fill="#FFFFFF" fill-opacity="1" font-family="07LogoTypeGothic7,07LogoTypeGothic7_MSFontService,sans-serif" font-style="normal" font-variant="normal" font-weight="400" font-stretch="normal" font-size="83" text-anchor="start" direction="ltr" writing-mode="lr-tb" unicode-bidi="normal" text-decoration="none" transform="matrix(1 0 0 1 3051.2 1116)">認知</text><g><g><g><path d="M209.506 45.3093 46.4 45.3093C41.413 45.3584 37.3824 49.389 37.3333 54.3759L37.3333 164.442C37.289 169.405 41.2762 173.465 46.2392 173.509 46.2928 173.51 46.3464 173.51 46.4 173.509L146.08 173.509 182.32 210.552 182.32 173.77 209.506 173.77C214.493 173.721 218.524 169.691 218.573 164.704L218.573 54.6373C218.636 49.5615 214.582 45.3912 209.506 45.3093ZM122.133 66.6666 133.888 66.6666 133.888 121.899 122.133 121.899ZM128 149.333C122.589 149.335 118.201 144.949 118.2 139.539 118.198 134.128 122.584 129.74 127.995 129.739 133.405 129.737 137.793 134.122 137.795 139.533 137.795 139.534 137.795 139.535 137.795 139.536 137.846 144.895 133.544 149.281 128.185 149.333 128.13 149.333 128.076 149.333 128.021 149.333Z" fill="#FFFFFF" fill-rule="nonzero" fill-opacity="1" transform="matrix(1 0 0 1 2710 1013)"/></g></g></g><text fill="#FFFFFF" fill-opacity="1" font-family="07LogoTypeGothic7,07LogoTypeGothic7_MSFontService,sans-serif" font-style="normal" font-variant="normal" font-weight="700" font-stretch="normal" font-size="55" text-anchor="start" direction="ltr" writing-mode="lr-tb" unicode-bidi="normal" text-decoration="none" transform="matrix(1 0 0 1 3044.48 1213)">どういう状況か</text><path d="M2640 1852.33C2640 1827.85 2659.85 1808 2684.33 1808L3418.67 1808C3443.15 1808 3463 1827.85 3463 1852.33L3463 2029.67C3463 2054.15 3443.15 2074 3418.67 2074L2684.33 2074C2659.85 2074 2640 2054.15 2640 2029.67Z" fill="#0F9ED5" fill-rule="evenodd" fill-opacity="1"/><text fill="#FFFFFF" fill-opacity="1" font-family="07LogoTypeGothic7,07LogoTypeGothic7_MSFontService,sans-serif" font-style="normal" font-variant="normal" font-weight="400" font-stretch="normal" font-size="83" text-anchor="start" direction="ltr" writing-mode="lr-tb" unicode-bidi="normal" text-decoration="none" transform="matrix(1 0 0 1 3051.2 1924)">動機づけ</text><g><g><g><path d="M2831.03 2005.25C2831.03 2028.29 2812.35 2046.97 2789.31 2046.97 2766.27 2046.97 2747.59 2028.29 2747.59 2005.25 2747.59 1982.21 2766.27 1963.53 2789.31 1963.53 2812.35 1963.53 2831.03 1982.21 2831.03 2005.25Z" fill="#FFFFFF" fill-rule="nonzero" fill-opacity="1"/><path d="M2919.48 1879.26 2953.41 1830.03 2848.83 1934.61 2919.75 1836.15 2848.83 1910.13 2867.19 1876.2 2824.08 1925.43 2830.2 1907.07 2774.85 1954.35C2779.58 1952.96 2784.31 1952.41 2789.31 1952.41 2818.52 1952.41 2842.16 1976.05 2842.16 2005.25 2842.16 2012.2 2840.77 2018.6 2838.54 2024.72L2895 1962.42 2879.7 1965.48 2922.81 1928.49 2885.54 1944.06 2941.17 1888.44 2901.12 1913.19 2953.41 1857.84 2919.48 1879.26Z" fill="#FFFFFF" fill-rule="nonzero" fill-opacity="1"/><path d="M2877.48 1860.07C2879.7 1861.46 2882.76 1860.35 2884.15 1857.57 2886.1 1854.23 2885.82 1854.78 2888.05 1841.43 2888.05 1841.43 2877.76 1850.06 2876.09 1852.84 2874.98 1855.62 2875.25 1858.68 2877.48 1860.07Z" fill="#FFFFFF" fill-rule="nonzero" fill-opacity="1"/><path d="M2913.36 1953.24C2914.75 1955.47 2917.81 1955.74 2920.59 1954.08 2923.09 1952.41 2936.72 1939.89 2936.72 1939.89 2936.72 1939.89 2918.08 1944.62 2915.58 1946.29 2913.08 1947.96 2911.97 1951.29 2913.36 1953.24Z" fill="#FFFFFF" fill-rule="nonzero" fill-opacity="1"/></g></g></g><text fill="#FFFFFF" fill-opacity="1" font-family="07LogoTypeGothic7,07LogoTypeGothic7_MSFontService,sans-serif" font-style="normal" font-variant="normal" font-weight="700" font-stretch="normal" font-size="55" text-anchor="start" direction="ltr" writing-mode="lr-tb" unicode-bidi="normal" text-decoration="none" transform="matrix(1 0 0 1 3049.99 2023)">何をしたいか</text><path d="M2640 1440.5C2640 1415.92 2659.92 1396 2684.5 1396L3418.5 1396C3443.08 1396 3463 1415.92 3463 1440.5L3463 1618.5C3463 1643.08 3443.08 1663 3418.5 1663L2684.5 1663C2659.92 1663 2640 1643.08 2640 1618.5Z" fill="#0F9ED5" fill-rule="evenodd" fill-opacity="1"/><text fill="#FFFFFF" fill-opacity="1" font-family="07LogoTypeGothic7,07LogoTypeGothic7_MSFontService,sans-serif" font-style="normal" font-variant="normal" font-weight="400" font-stretch="normal" font-size="83" text-anchor="start" direction="ltr" writing-mode="lr-tb" unicode-bidi="normal" text-decoration="none" transform="matrix(1 0 0 1 3051.2 1513)">情動</text><g><g><g><path d="M135.422 140.991C126.309 136.941 117.956 130.866 111.375 122.766 107.578 118.209 104.541 113.4 102.263 108.084L20.25 118.716 27.0844 173.897C30.8813 204.525 58.725 226.041 89.3531 222.244 119.981 218.447 141.497 190.603 137.7 159.975L135.422 140.991ZM90.1125 135.928C91.6313 133.65 94.6688 132.891 97.2 134.156L109.097 141.497C111.375 143.016 112.134 146.053 110.869 148.584 109.856 150.103 108.338 151.116 106.566 151.116 105.553 151.116 104.794 150.863 104.034 150.356L92.1375 143.016C89.6063 141.497 88.8469 138.459 90.1125 135.928M50.625 149.344 59.7375 138.966C61.5094 136.941 64.8 136.688 66.825 138.459 68.85 140.231 69.1031 143.522 67.3313 145.547L58.2188 155.925C57.2063 156.938 55.9406 157.697 54.4219 157.697 53.1563 157.697 52.1438 157.191 51.1313 156.431 49.1063 154.659 48.8531 151.369 50.625 149.344M114.413 188.325C112.134 190.097 109.097 189.591 107.325 187.313 101.756 179.972 92.8969 176.175 83.7844 177.441 74.6719 178.453 67.0781 184.528 63.5344 192.881 62.775 194.906 60.75 195.919 58.9781 195.919 58.2188 195.919 57.7125 195.666 56.9531 195.413 54.4219 194.4 53.1563 191.363 54.1688 188.831 59.2313 177.188 70.1156 168.834 82.5188 167.316 95.175 165.797 107.578 171.113 115.425 181.238 117.197 183.516 116.691 186.806 114.413 188.325" fill="#FFFFFF" fill-rule="nonzero" fill-opacity="1" transform="matrix(1 0 0 1.00412 2726 1409)"/><path d="M111.881 20.25 106.819 75.6844C103.781 106.313 126.309 133.65 156.938 136.434 187.566 139.219 214.65 116.691 217.434 86.0625L222.497 30.6281 111.881 20.25ZM136.941 51.1313 150.863 52.3969C153.647 52.65 155.672 55.1813 155.419 57.9656 155.166 60.4969 152.888 62.5219 150.356 62.5219 150.103 62.5219 150.103 62.5219 149.85 62.5219L135.928 61.2563C133.144 61.0031 131.119 58.4719 131.372 55.6875 131.625 52.9031 134.156 50.8781 136.941 51.1313M191.363 100.238C184.528 109.603 173.644 115.425 162.253 115.425 161.241 115.425 159.975 115.425 158.963 115.172 146.306 113.906 135.169 106.059 129.853 94.6688 128.588 92.1375 129.853 89.1 132.384 87.8344 134.916 86.5688 137.953 87.8344 139.219 90.3656 143.016 98.7188 151.116 104.288 159.975 105.047 169.088 105.806 177.947 101.756 183.263 94.4156 184.781 92.1375 188.072 91.6313 190.35 93.15 192.375 94.6688 192.881 97.9594 191.363 100.238M191.869 66.3188C191.616 66.3188 191.616 66.3188 191.363 66.3188L177.441 65.0531C174.656 64.8 172.631 62.2688 172.884 59.4844 173.138 56.7 175.669 54.675 178.453 54.9281L192.375 56.1938C195.159 56.4469 197.184 58.9781 196.931 61.7625 196.678 64.2938 194.4 66.3188 191.869 66.3188" fill="#FFFFFF" fill-rule="nonzero" fill-opacity="1" transform="matrix(1 0 0 1.00412 2726 1409)"/></g></g></g><text fill="#FFFFFF" fill-opacity="1" font-family="07LogoTypeGothic7,07LogoTypeGothic7_MSFontService,sans-serif" font-style="normal" font-variant="normal" font-weight="700" font-stretch="normal" font-size="55" text-anchor="start" direction="ltr" writing-mode="lr-tb" unicode-bidi="normal" text-decoration="none" transform="matrix(1 0 0 1 3044.48 1610)">どう感じたか</text></g></g></svg>